<?xml version="1.0" encoding="utf-8"?>
<!-- Generator: Adobe Illustrator 16.0.4, SVG Export Plug-In . SVG Version: 6.00 Build 0)  -->
<!DOCTYPE svg PUBLIC "-//W3C//DTD SVG 1.1//EN" "http://www.w3.org/Graphics/SVG/1.1/DTD/svg11.dtd">
<svg version="1.1" id="_x30_3" xmlns="http://www.w3.org/2000/svg" xmlns:xlink="http://www.w3.org/1999/xlink" x="0px" y="0px"
	 width="315.379px" height="189.264px" viewBox="3.621 1.567 315.379 189.264" enable-background="new 3.621 1.567 315.379 189.264"
	 xml:space="preserve">
<g>
	<path d="M278.98,1.567c-22.766,38.763-62.539,56.286-117.67,56.286c-55.131,0-94.91-17.523-117.671-56.286
		C20.919,15.764,3.621,40.773,3.621,71.232c0,31.145,18.944,58.188,43.646,71.81c23.489,13.133,61.377,20.817,114.043,20.817
		c52.666,0,90.556-7.687,114.043-20.817C300.061,129.419,319,102.376,319,71.232C319,40.773,301.704,15.764,278.98,1.567z"/>
	<path d="M129.647,138.427l36.039-98.931c1.147-3.596-0.653-5.886-3.543-5.886c-3.586,0-5.434,1.722-6.7,5.239l-36.277,99.576
		c-2.445,6.716-9.299,12.938-11.742,19.649l-9.553,26.205c-1.312,3.621,0.549,6.552,4.168,6.552h6.554
		c4.717,0,7.089-1.638,8.936-6.552l8.869-24.348C128.724,153.549,126.628,147.271,129.647,138.427z"/>
	<path d="M176.812,138.427l36.041-98.931C214,35.9,212.197,33.61,209.3,33.61c-3.573,0-5.427,1.722-6.692,5.239l-36.278,99.576
		c-2.442,6.716-9.301,12.938-11.746,19.649l-9.543,26.205c-1.316,3.621,0.551,6.552,4.167,6.552h6.547
		c4.723,0,7.094-1.638,8.938-6.552l8.873-24.348C175.884,153.549,173.792,147.271,176.812,138.427z"/>
</g>
<path d="M82.473,138.427l36.048-98.931c1.149-3.596-0.649-5.886-3.545-5.886c-3.593,0-5.43,1.722-6.707,5.239l-36.273,99.576
	c-2.448,6.716-9.298,12.938-11.742,19.649l-9.549,26.205c-1.315,3.621,0.549,6.552,4.164,6.552h6.555
	c4.72,0,7.089-1.638,8.934-6.552l8.871-24.348C81.554,153.549,79.457,147.271,82.473,138.427z"/>
</svg>
