<?xml version="1.0" encoding="utf-8"?>
<!-- Generator: Adobe Illustrator 19.1.0, SVG Export Plug-In . SVG Version: 6.00 Build 0)  -->
<svg version="1.1" id="レイヤー_1" xmlns="http://www.w3.org/2000/svg" xmlns:xlink="http://www.w3.org/1999/xlink" x="0px"
	 y="0px" width="541px" height="80px" viewBox="0 0 541 80" style="enable-background:new 0 0 541 80;" xml:space="preserve">
<style type="text/css">
	.st0{fill:#FFFFFF;}
</style>
<g>
	<path class="st0" d="M0.2,6.8c0-1.4,1-2.6,3-2.6c1.9,0,2.9,1.2,2.9,2.6v21.4h33.4V6.8c0-1.4,0.9-2.6,3-2.6c1.9,0,2.9,1.2,2.9,2.6
		v51.6c0,1.5-1,2.6-2.9,2.6c-2.1,0-3-1.1-3-2.6V33.6H6.1v24.8c0,1.5-1,2.6-2.9,2.6c-2,0-3-1.1-3-2.6V6.8z"/>
	<path class="st0" d="M62.4,5.3c0-2.5,2.1-4.5,4.5-4.5c2.6,0,4.6,2.1,4.6,4.5c0,2.5-2,4.6-4.6,4.6C64.5,9.9,62.4,7.9,62.4,5.3z
		 M64,21.3c0-1.4,1-2.5,3-2.5c1.9,0,3,1.1,3,2.5v37.3c0,1.4-1,2.4-3,2.4c-1.9,0-3-1-3-2.4V21.3z"/>
	<path class="st0" d="M89.9,44.5C86,42,84,37.7,84,33.3c0-10.1,6.9-15,16.3-15c4,0,7.5,1,9.8,2.7c2-2.9,4.8-4.4,8.5-4.4
		c3.1,0,4.1,1.3,4.1,3c0,1.6-1,2.6-3,2.6c-1.1,0-1.9-0.6-2.9-0.6c-1.2,0-2.6,0.6-3.8,2.4c1.6,2.1,2.8,4.9,2.8,8.1
		c0,10.6-7.6,14.8-15.9,14.8c-1.9,0-4.2-0.1-5.7-0.6l-1.4,1.7c-1.3,1.6-1.7,2.2-1.7,3.2c0,0.9,0.2,3.2,3.5,3.2h13.2
		c10.1,0,12.7,5.8,12.7,10.8c0,8.8-6.8,15.1-21.6,15.1c-13.8,0-17.1-6.6-17.1-11.2c0-3.9,2.2-6.3,4.8-8.3l2.2-1.7
		c-3-1.3-3.8-4-3.8-6.6c0-2.3,1.2-3.7,3.9-6.8L89.9,44.5z M94.5,59.7l-2.4,1.6c-3.4,2.3-4.2,4.2-4.2,7c0,3,3.3,6.9,11.3,6.9
		c11,0,15.3-4,15.3-9.3c0-3.2-1.9-6.2-7.2-6.2H94.5z M89.9,32.4c0,7.7,5.1,9.9,10.2,9.9c6.4,0,9.8-3.3,9.8-9.1
		c0-6.2-3.7-10.1-10.1-10.1C93.9,23.1,89.9,26.6,89.9,32.4z"/>
	<path class="st0" d="M152.8,35c0-6.4-1.7-11.3-8.3-11.3c-6.5,0-6.8,3.6-10.1,3.6c-1.6,0-2.3-1.1-2.3-2.2c0-0.7,0.2-1.5,1-2.2
		c2.9-2.5,7.8-4.1,11.8-4.1c10.1,0,13.8,5.4,13.8,15.1v9.8c0,11.6,1.8,13.3,1.8,14.8c0,1.3-0.6,2.5-2.5,2.5c-0.8,0-1.9-0.3-2.5-1.7
		c-0.7-1.6-1.3-4-1.5-6.4c-1.9,5.4-6.6,8.3-13.6,8.3c-8,0-12-4.9-12-10.9c0-8.9,7.3-12.4,24.7-13.4V35z M152.8,41.6
		c-16.9,0.6-18.8,4.7-18.8,8.4c0,4,2.9,6.7,7.5,6.7c7.8,0,11.3-4.6,11.3-10.7V41.6z"/>
	<path class="st0" d="M178.3,40.9c-5.2-2.1-7.6-5.7-7.6-10.7c0-7,5.4-11.4,13.5-11.4c4.5,0,7.5,1.3,9.5,2.8c0.9,0.6,1.6,1.6,1.6,2.6
		c0,1.6-1.2,2.5-2.4,2.5c-0.8,0-1.2-0.1-2.4-1c-2.8-1.9-4.5-2.2-7.2-2.2c-4.7,0-7.2,2.8-7.2,6.3c0,3.5,2,5.1,4.6,6.2l7.2,2.9
		c5.2,2.2,7.7,5.5,7.7,10.1c0,7.7-5.4,12.4-14.3,12.4c-4.4,0-7.5-1.1-10.1-2.6c-1.3-0.7-2-1.7-2-2.9c0-1.7,1.1-2.8,2.6-2.8
		c1,0,1.9,0.5,2.5,1c2.5,1.9,4.9,2.7,7.8,2.7c4.7,0,8.1-2.4,8.1-6.6c0-3.6-1.9-5.2-5.8-6.8L178.3,40.9z"/>
	<path class="st0" d="M234.6,33.9c0-7.3-4.5-10.2-9.2-10.2c-7.9,0-11.7,5.2-11.7,11.6v23.2c0,1.4-1,2.5-3,2.5c-2,0-2.9-1.1-2.9-2.5
		V3.2c0-1.4,0.9-2.6,2.9-2.6c1.9,0,3,1.2,3,2.6v22.5c2.2-3.8,6.3-6.9,12.8-6.9c8.7,0,14,6,14,14.8v24.8c0,1.4-1,2.5-3.1,2.5
		c-2,0-2.8-1.1-2.8-2.5V33.9z"/>
	<path class="st0" d="M255.5,5.3c0-2.5,2.1-4.5,4.5-4.5c2.6,0,4.6,2.1,4.6,4.5c0,2.5-2,4.6-4.6,4.6C257.5,9.9,255.5,7.9,255.5,5.3z
		 M257.1,21.3c0-1.4,1-2.5,3-2.5c1.9,0,3,1.1,3,2.5v37.3c0,1.4-1,2.4-3,2.4c-1.9,0-3-1-3-2.4V21.3z"/>
	<path class="st0" d="M306.2,33.9c0-7.3-4.5-10.2-9.2-10.2c-7.7,0-11.6,5.4-11.6,11.6v23.1c0,1.5-1,2.6-2.9,2.6c-2,0-3-1.1-3-2.6
		V21.6c0-1.4,1-2.4,2.8-2.4c1.7,0,2.8,1.2,2.8,2.5v4.4c2.2-4,6.3-7.3,13.3-7.3c8.6,0,13.9,5.9,13.9,14.8v24.7c0,1.5-1,2.6-3.1,2.6
		c-2,0-2.9-1.1-2.9-2.6V33.9z"/>
	<path class="st0" d="M324.6,40.6c0-14.4,7.4-21.9,18.8-21.9c11.4,0,18.8,6.3,18.8,20.6c0,14.5-7.4,21.9-18.8,21.9
		C332,61.3,324.6,55,324.6,40.6z M356,40c0-12.3-5.7-16.5-12.7-16.5c-7,0-12.7,4.2-12.7,16.5c0,12.3,5.7,16.6,12.7,16.6
		C350.3,56.6,356,52.3,356,40z"/>
	<path class="st0" d="M433.5,6.8c0-1.4,1-2.6,2.9-2.6c1.9,0,2.9,1.2,2.9,2.6v49.9c0,2.5-1.5,4.2-4.6,4.2c-1.7,0-3.5-0.6-5.4-3.6
		l-27.9-46.8v47.8c0,1.6-1,2.6-2.8,2.6c-1.9,0-2.8-1-2.8-2.6V8.9c0-2.8,1.6-4.7,5.1-4.7c2.2,0,4,0.5,5.5,3.1l27.2,45.7V6.8z"/>
	<path class="st0" d="M455.7,5.3c0-2.5,2.1-4.5,4.5-4.5c2.6,0,4.6,2.1,4.6,4.5c0,2.5-2,4.6-4.6,4.6C457.7,9.9,455.7,7.9,455.7,5.3z
		 M457.3,21.3c0-1.4,1-2.5,3-2.5c1.9,0,3,1.1,3,2.5v37.3c0,1.4-1,2.4-3,2.4c-1.9,0-3-1-3-2.4V21.3z"/>
	<path class="st0" d="M480.4,23.9h-5c-1.3,0-2.2-1.1-2.2-2.4c0-1,0.8-2.2,2.2-2.2h5V9.3c0-1.4,1-2.5,2.9-2.5c1.8,0,2.8,1.1,2.8,2.5
		v9.9h8.9c1.3,0,1.9,1.2,1.9,2.2c0,1.3-0.6,2.4-1.9,2.4h-8.9v26.5c0,3.5,0.8,5.8,4.7,5.8c2.4,0,3.8-0.7,4.8-0.7
		c1.7,0,2.5,0.9,2.5,2.2c0,1.5-0.9,2.3-2.3,2.8c-1,0.3-3.6,0.8-5.7,0.8c-6.2,0-9.8-2.9-9.8-9.5V23.9z"/>
	<path class="st0" d="M510.8,41.3c0.3,11.3,6.7,15.1,15.1,15.1c3.7,0,5.8-0.8,7.2-1.3c0.8-0.3,1.1-0.4,1.8-0.4c1,0,2.1,0.7,2.1,2.1
		c0,1-0.4,2.2-2.3,2.9c-1.8,0.7-5,1.6-10.1,1.6c-13,0-19.8-6.8-19.8-20c0-13.9,7.5-22.3,18.2-22.3c11.8,0,16.2,7.5,16.2,16.8v2.2
		c0,2.8-1.3,3.5-4.2,3.5H510.8z M533.1,36.3c-0.1-9.6-4.5-12.7-11-12.7c-5,0-10.2,3.7-11.2,12.7H533.1z"/>
</g>
</svg>
