<?xml version="1.0"?>
<svg width="550" height="250" xmlns="http://www.w3.org/2000/svg">
 <!-- Created with Method Draw - http://github.com/duopixel/Method-Draw/ -->
 <defs>
  <filter height="200%" width="200%" y="-50%" x="-50%" id="svg_33_blur">
   <feGaussianBlur stdDeviation="1" in="SourceGraphic"/>
  </filter>
  <filter height="200%" width="200%" y="-50%" x="-50%" id="svg_6_blur">
   <feGaussianBlur stdDeviation="0" in="SourceGraphic"/>
  </filter>
 </defs>
 <g>
  <title>background</title>
  <rect fill="#fff" id="canvas_background" height="250" width="800" y="0" x="0"/>
  <g display="none" overflow="visible" y="0" x="0" height="100%" width="100%" id="canvasGrid">
   <rect fill="url(#gridpattern)" stroke-width="0" y="1" x="1" height="250" width="550"/>
  </g>
 </g>
 <g>
  <title>Layer 1</title>
  <rect opacity="0.8" filter="url(#svg_6_blur)" stroke="#fdfdfd" id="svg_6" height="252" width="520.999983" y="1.5" x="21.500006" stroke-width="1.5" fill="#fdfdfd"/>
  <rect stroke="#000" id="svg_13" height="252" width="20" y="1.5" x="1.5" stroke-opacity="null" stroke-width="1.5" fill="#000000"/>
  <rect stroke="#000" id="svg_14" height="252" width="20" y="1.5" x="530" stroke-opacity="null" stroke-width="1.5" fill="#000000"/>
  <rect filter="url(#svg_33_blur)" rx="5" id="svg_16" height="20" width="15" y="12.5" x="532" stroke-opacity="null" stroke-width="1.5" stroke="#000" fill="#ffffff"/>
  <rect filter="url(#svg_33_blur)" rx="5" id="svg_19" height="20" width="15" y="42.5" x="532" stroke-opacity="null" stroke-width="1.5" stroke="#000" fill="#ffffff"/>
  <rect filter="url(#svg_33_blur)" rx="5" id="svg_20" height="20" width="15" y="72.5" x="532" stroke-opacity="null" stroke-width="1.5" stroke="#000" fill="#ffffff"/>
  <rect filter="url(#svg_33_blur)" rx="5" id="svg_21" height="20" width="15" y="102.5" x="532" stroke-opacity="null" stroke-width="1.5" stroke="#000" fill="#ffffff"/>
  <rect filter="url(#svg_33_blur)" rx="5" id="svg_22" height="20" width="15" y="132.5" x="532" stroke-opacity="null" stroke-width="1.5" stroke="#000" fill="#ffffff"/>
  <rect filter="url(#svg_33_blur)" rx="5" id="svg_23" height="20" width="15" y="222.5" x="532" stroke-opacity="null" stroke-width="1.5" stroke="#000" fill="#ffffff"/>
  <rect filter="url(#svg_33_blur)" rx="5" id="svg_24" height="20" width="15" y="192.5" x="532" stroke-opacity="null" stroke-width="1.5" stroke="#000" fill="#ffffff"/>
  <rect filter="url(#svg_33_blur)" rx="5" id="svg_25" height="20" width="15" y="162.5" x="532" stroke-opacity="null" stroke-width="1.5" stroke="#000" fill="#ffffff"/>
  <rect filter="url(#svg_33_blur)" rx="5" id="svg_26" height="20" width="15" y="12.5" x="3.5" stroke-opacity="null" stroke-width="1.5" stroke="#000" fill="#ffffff"/>
  <rect filter="url(#svg_33_blur)" rx="5" id="svg_27" height="20" width="15" y="42.5" x="3.5" stroke-opacity="null" stroke-width="1.5" stroke="#000" fill="#ffffff"/>
  <rect filter="url(#svg_33_blur)" rx="5" id="svg_28" height="20" width="15" y="72.5" x="3.5" stroke-opacity="null" stroke-width="1.5" stroke="#000" fill="#ffffff"/>
  <rect filter="url(#svg_33_blur)" rx="5" id="svg_29" height="20" width="15" y="102.5" x="3.5" stroke-opacity="null" stroke-width="1.5" stroke="#000" fill="#ffffff"/>
  <rect filter="url(#svg_33_blur)" rx="5" id="svg_30" height="20" width="15" y="132.5" x="3.5" stroke-opacity="null" stroke-width="1.5" stroke="#000" fill="#ffffff"/>
  <rect filter="url(#svg_33_blur)" rx="5" id="svg_31" height="20" width="15" y="222.5" x="3.5" stroke-opacity="null" stroke-width="1.5" stroke="#000" fill="#ffffff"/>
  <rect filter="url(#svg_33_blur)" rx="5" id="svg_32" height="20" width="15" y="192.5" x="3.5" stroke-opacity="null" stroke-width="1.5" stroke="#000" fill="#ffffff"/>
  <rect filter="url(#svg_33_blur)" rx="5" id="svg_33" height="20" width="15" y="162.5" x="3.5" stroke-opacity="null" stroke-width="1.5" stroke="#000" fill="#ffffff"/>
 </g>
</svg>