<?xml version="1.0"?>
<svg width="550" height="400" xmlns="http://www.w3.org/2000/svg">
 <!-- Created with Method Draw - http://github.com/duopixel/Method-Draw/ -->
 <defs>
  <filter height="200%" width="200%" y="-50%" x="-50%" id="svg_33_blur">
   <feGaussianBlur stdDeviation="1" in="SourceGraphic"/>
  </filter>
  <filter height="200%" width="200%" y="-50%" x="-50%" id="svg_6_blur">
   <feGaussianBlur stdDeviation="0" in="SourceGraphic"/>
  </filter>
 </defs>
 <g>
  <title>Layer 1</title>
  <rect opacity="0.8" filter="url(#svg_6_blur)" stroke="#fdfdfd" id="svg_b" height="398.5" width="520.999983" y="1.5" x="21.500006" stroke-width="1.5" fill="#fdfdfd"/>
  <rect stroke="#000" id="svg_l" height="400" width="20" y="1.5" x="1.5" stroke-opacity="null" stroke-width="1.5" fill="#000000"/>
  <rect stroke="#000" id="svg_r" height="400" width="20" y="1.5" x="530" stroke-opacity="null" stroke-width="1.5" fill="#000000"/>
  <rect filter="url(#svg_33_blur)" rx="5" id="svg_l0" height="20" width="15" y="12.5" x="3.5" stroke-opacity="null" stroke-width="1.5" stroke="#000" fill="#ffffff"/>
  <rect filter="url(#svg_33_blur)" rx="5" id="svg_l1" height="20" width="15" y="42.5" x="3.5" stroke-opacity="null" stroke-width="1.5" stroke="#000" fill="#ffffff"/>
  <rect filter="url(#svg_33_blur)" rx="5" id="svg_l2" height="20" width="15" y="72.5" x="3.5" stroke-opacity="null" stroke-width="1.5" stroke="#000" fill="#ffffff"/>
  <rect filter="url(#svg_33_blur)" rx="5" id="svg_l3" height="20" width="15" y="102.5" x="3.5" stroke-opacity="null" stroke-width="1.5" stroke="#000" fill="#ffffff"/>
  <rect filter="url(#svg_33_blur)" rx="5" id="svg_l4" height="20" width="15" y="132.5" x="3.5" stroke-opacity="null" stroke-width="1.5" stroke="#000" fill="#ffffff"/>
  <rect filter="url(#svg_33_blur)" rx="5" id="svg_l5" height="20" width="15" y="162.5" x="3.5" stroke-opacity="null" stroke-width="1.5" stroke="#000" fill="#ffffff"/>
  <rect filter="url(#svg_33_blur)" rx="5" id="svg_l6" height="20" width="15" y="192.5" x="3.5" stroke-opacity="null" stroke-width="1.5" stroke="#000" fill="#ffffff"/>
  <rect filter="url(#svg_33_blur)" rx="5" id="svg_l7" height="20" width="15" y="222.5" x="3.5" stroke-opacity="null" stroke-width="1.5" stroke="#000" fill="#ffffff"/>
  <rect filter="url(#svg_33_blur)" rx="5" id="svg_l8" height="20" width="15" y="252.5" x="3.5" stroke-opacity="null" stroke-width="1.5" stroke="#000" fill="#ffffff"/>
  <rect filter="url(#svg_33_blur)" rx="5" id="svg_l9" height="20" width="15" y="282.5" x="3.5" stroke-opacity="null" stroke-width="1.5" stroke="#000" fill="#ffffff"/>
  <rect filter="url(#svg_33_blur)" rx="5" id="svg_l10" height="20" width="15" y="312.5" x="3.5" stroke-opacity="null" stroke-width="1.5" stroke="#000" fill="#ffffff"/>
  <rect filter="url(#svg_33_blur)" rx="5" id="svg_l11" height="20" width="15" y="342.5" x="3.5" stroke-opacity="null" stroke-width="1.5" stroke="#000" fill="#ffffff"/>
  <rect filter="url(#svg_33_blur)" rx="5" id="svg_l12" height="20" width="15" y="372.5" x="3.5" stroke-opacity="null" stroke-width="1.5" stroke="#000" fill="#ffffff"/>
  <rect filter="url(#svg_33_blur)" rx="5" id="svg_r0" height="20" width="15" y="12.5" x="532" stroke-opacity="null" stroke-width="1.5" stroke="#000" fill="#ffffff"/>
  <rect filter="url(#svg_33_blur)" rx="5" id="svg_r1" height="20" width="15" y="42.5" x="532" stroke-opacity="null" stroke-width="1.5" stroke="#000" fill="#ffffff"/>
  <rect filter="url(#svg_33_blur)" rx="5" id="svg_r2" height="20" width="15" y="72.5" x="532" stroke-opacity="null" stroke-width="1.5" stroke="#000" fill="#ffffff"/>
  <rect filter="url(#svg_33_blur)" rx="5" id="svg_r3" height="20" width="15" y="102.5" x="532" stroke-opacity="null" stroke-width="1.5" stroke="#000" fill="#ffffff"/>
  <rect filter="url(#svg_33_blur)" rx="5" id="svg_r4" height="20" width="15" y="132.5" x="532" stroke-opacity="null" stroke-width="1.5" stroke="#000" fill="#ffffff"/>
  <rect filter="url(#svg_33_blur)" rx="5" id="svg_r5" height="20" width="15" y="162.5" x="532" stroke-opacity="null" stroke-width="1.5" stroke="#000" fill="#ffffff"/>
  <rect filter="url(#svg_33_blur)" rx="5" id="svg_r6" height="20" width="15" y="192.5" x="532" stroke-opacity="null" stroke-width="1.5" stroke="#000" fill="#ffffff"/>
  <rect filter="url(#svg_33_blur)" rx="5" id="svg_r7" height="20" width="15" y="222.5" x="532" stroke-opacity="null" stroke-width="1.5" stroke="#000" fill="#ffffff"/>
  <rect filter="url(#svg_33_blur)" rx="5" id="svg_r8" height="20" width="15" y="252.5" x="532" stroke-opacity="null" stroke-width="1.5" stroke="#000" fill="#ffffff"/>
  <rect filter="url(#svg_33_blur)" rx="5" id="svg_r9" height="20" width="15" y="282.5" x="532" stroke-opacity="null" stroke-width="1.5" stroke="#000" fill="#ffffff"/>
  <rect filter="url(#svg_33_blur)" rx="5" id="svg_r10" height="20" width="15" y="312.5" x="532" stroke-opacity="null" stroke-width="1.5" stroke="#000" fill="#ffffff"/>
  <rect filter="url(#svg_33_blur)" rx="5" id="svg_r11" height="20" width="15" y="342.5" x="532" stroke-opacity="null" stroke-width="1.5" stroke="#000" fill="#ffffff"/>
  <rect filter="url(#svg_33_blur)" rx="5" id="svg_r12" height="20" width="15" y="372.5" x="532" stroke-opacity="null" stroke-width="1.5" stroke="#000" fill="#ffffff"/>
 </g>
</svg>
