<?xml version="1.0" encoding="utf-8"?>
<!-- Generator: Adobe Illustrator 16.0.4, SVG Export Plug-In . SVG Version: 6.00 Build 0)  -->
<!DOCTYPE svg PUBLIC "-//W3C//DTD SVG 1.1//EN" "http://www.w3.org/Graphics/SVG/1.1/DTD/svg11.dtd">
<svg version="1.1" id="レイヤー_1" xmlns="http://www.w3.org/2000/svg" xmlns:xlink="http://www.w3.org/1999/xlink" x="0px"
	 y="0px" width="1138.047px" height="1126.451px" viewBox="30.751 37.135 1138.047 1126.451"
	 enable-background="new 30.751 37.135 1138.047 1126.451" xml:space="preserve">
<g>
	<g>
		<g>
			<path fill="#1B1B1B" d="M874.029,1070.067c-1.417-2.435-2.33-4.116-3.992-7.048l-10.289-18.073
				c-12.477-21.866-27.28-47.612-41.495-72.208c-28.424-49.195-54.51-93.784-54.507-93.785
				c-0.004,0.002-26.023-44.624-54.921-93.543l-21.839-36.869l-20.509-34.383l-2.555-4.261c-1.736-2.892-2.752-4.513-4.175-6.942
				c1.417,2.434,2.33,4.115,3.992,7.048l2.453,4.32l19.854,34.765l21.364,37.147c28.384,49.218,54.445,93.818,54.442,93.82
				c0.002-0.001,25.998,44.641,54.855,93.582c14.426,24.474,29.564,50.022,42.468,71.641l10.679,17.847
				C871.592,1066.016,872.607,1067.637,874.029,1070.067z"/>
		</g>
		<g>
			<path fill="#1B1B1B" d="M539.753,497.371c-1.418-2.434-2.331-4.115-3.993-7.048l-10.289-18.073
				c-12.477-21.866-27.279-47.612-41.494-72.208c-28.425-49.195-54.511-93.784-54.507-93.785
				c-0.003,0.002-26.022-44.624-54.921-93.542l-21.839-36.871l-20.507-34.382l-2.556-4.261c-1.736-2.89-2.753-4.512-4.175-6.943
				c1.417,2.434,2.33,4.116,3.992,7.049l2.454,4.32l19.854,34.765l21.363,37.147c28.385,49.218,54.446,93.82,54.442,93.821
				c0.002,0,25.999,44.64,54.855,93.582c14.427,24.472,29.564,50.023,42.469,71.64l10.677,17.846
				C537.315,493.319,538.33,494.941,539.753,497.371z"/>
		</g>
	</g>
	<g>
		<g>
			<path fill="#1B1B1B" d="M321.748,1039.178c1.509-2.378,2.584-3.96,4.425-6.785l10.874-16.749
				c13.031-20.122,28.325-43.911,42.9-66.7c29.155-45.576,55.431-87.165,55.435-87.164c-0.004-0.002,26.335-41.55,55.031-87.417
				l21.601-34.622l20.079-32.409l2.605-4.23c1.767-2.872,2.736-4.521,4.239-6.901c-1.509,2.378-2.585,3.96-4.426,6.784l-2.71,4.163
				l-20.713,32.01l-22.062,34.329c-29.195,45.552-55.492,87.126-55.496,87.124c0.003,0.001-26.358,41.534-55.095,87.379
				c-14.371,22.92-29.336,46.916-41.956,67.3l-10.491,16.99C324.222,1035.146,323.251,1036.797,321.748,1039.178z"/>
		</g>
		<g>
			<path fill="#1B1B1B" d="M660.562,504.129c1.511-2.378,2.586-3.96,4.427-6.786l10.873-16.748
				c13.03-20.123,28.325-43.912,42.9-66.702c29.155-45.577,55.432-87.166,55.435-87.164c-0.003-0.002,26.335-41.55,55.031-87.417
				l21.601-34.622l20.079-32.41l2.604-4.23c1.769-2.872,2.736-4.521,4.241-6.902c-1.51,2.377-2.586,3.959-4.427,6.785l-2.71,4.164
				l-20.714,32.008l-22.062,34.33c-29.194,45.552-55.492,87.125-55.494,87.123c0.002,0.002-26.359,41.537-55.096,87.38
				c-14.37,22.919-29.336,46.916-41.955,67.3l-10.492,16.99C663.039,500.098,662.068,501.748,660.562,504.129z"/>
		</g>
	</g>
	<g>
		<g>
			<path fill="#1B1B1B" d="M820.196,865.237c-1.797-2.169-2.948-3.698-5.058-6.33l-8.804-10.942
				c-9.664-11.972-21.129-26.041-32.142-39.461c-22.021-26.844-42.243-51.086-42.241-51.088
				c-0.002,0.002-20.169-24.285-42.58-50.805l-16.938-19.974l-15.914-18.602l-3.243-3.765c-2.204-2.553-3.498-3.964-5.304-6.125
				c1.797,2.169,2.948,3.697,5.057,6.329l3.108,3.878l15.391,19.037l16.55,20.297c21.99,26.869,42.193,51.126,42.19,51.129
				c0.003-0.002,20.151,24.3,42.531,50.845c11.188,13.276,22.931,27.113,32.94,38.797l9.153,10.652
				C817.099,861.663,818.393,863.074,820.196,865.237z"/>
		</g>
		<g>
			<path fill="#1B1B1B" d="M551.528,542.179c-1.796-2.169-2.949-3.697-5.058-6.33l-8.805-10.941
				c-9.664-11.973-21.127-26.042-32.141-39.461c-22.021-26.845-42.243-51.086-42.24-51.088c-0.003,0.001-20.17-24.286-42.58-50.806
				l-16.939-19.972l-15.914-18.602l-3.243-3.764c-2.204-2.552-3.498-3.963-5.304-6.125c1.797,2.168,2.948,3.698,5.057,6.33
				l3.108,3.876l15.39,19.039l16.551,20.295c21.99,26.87,42.193,51.126,42.189,51.128c0.004-0.002,20.152,24.301,42.533,50.846
				c11.188,13.275,22.931,27.113,32.939,38.798l9.153,10.651C548.43,538.604,549.723,540.016,551.528,542.179z"/>
		</g>
	</g>
	<g>
		<g>
			<path fill="#1B1B1B" d="M713.725,1011.456c-0.749-2.715-1.186-4.578-2.037-7.841l-4.272-16.271
				c-4.959-18.77-10.891-40.89-16.628-62.031c-11.467-42.287-22.153-80.663-22.149-80.664c-0.004,0.001-10.618-38.395-22.594-80.539
				l-9.079-31.774l-8.595-29.661l-1.397-4.769c-0.948-3.235-1.533-5.059-2.289-7.771c0.75,2.715,1.186,4.578,2.036,7.841
				l1.257,4.808l7.898,29.854l8.569,31.916c11.425,42.298,22.086,80.681,22.082,80.682c0.003,0,10.594,38.401,22.527,80.559
				c5.962,21.08,12.263,43.099,17.672,61.744l4.711,16.15C712.385,1006.92,712.969,1008.742,713.725,1011.456z"/>
		</g>
		<g>
			<path fill="#1B1B1B" d="M574.819,510.193c-0.75-2.715-1.187-4.578-2.037-7.841l-4.274-16.271
				c-4.958-18.771-10.89-40.89-16.627-62.032c-11.466-42.287-22.152-80.664-22.148-80.664c-0.005,0-10.619-38.394-22.595-80.54
				l-9.079-31.774l-8.594-29.661l-1.396-4.768c-0.95-3.235-1.535-5.057-2.29-7.77c0.749,2.714,1.185,4.579,2.036,7.841l1.256,4.807
				l7.898,29.854l8.57,31.915c11.424,42.298,22.085,80.681,22.082,80.682c0.003-0.001,10.594,38.401,22.527,80.56
				c5.963,21.08,12.262,43.098,17.672,61.743l4.711,16.149C573.479,505.657,574.062,507.479,574.819,510.193z"/>
		</g>
	</g>
	<g>
		<g>
			<path fill="#1B1B1B" d="M168.92,951.167c2.186-1.776,3.705-2.939,6.344-5.036l16.57-13.21
				c20.115-16.068,43.783-35.101,66.384-53.354c45.205-36.506,86.13-69.914,86.132-69.911c-0.002-0.004,40.97-33.353,85.827-70.283
				l33.8-27.896l31.499-26.15l3.814-3.185c2.587-2.162,4.034-3.415,6.214-5.195c-2.185,1.776-3.705,2.938-6.345,5.036l-3.889,3.093
				l-31.979,25.562l-34.149,27.466c-45.233,36.47-86.175,69.856-86.178,69.854c0.002,0.003-40.988,33.331-85.875,70.226
				c-22.446,18.445-45.869,37.779-65.671,54.232l-16.285,13.558C172.548,948.133,171.103,949.386,168.92,951.167z"/>
		</g>
		<g>
			<path fill="#1B1B1B" d="M693.995,523.381c2.186-1.777,3.705-2.939,6.345-5.037l16.569-13.209
				c20.114-16.068,43.784-35.102,66.384-53.354c45.206-36.506,86.131-69.914,86.133-69.912
				c-0.004-0.003,40.971-33.352,85.827-70.283l33.8-27.893l31.499-26.152l3.815-3.183c2.588-2.163,4.033-3.416,6.214-5.197
				c-2.186,1.777-3.704,2.939-6.345,5.037l-3.89,3.094l-31.979,25.562l-34.149,27.466c-45.232,36.468-86.175,69.856-86.178,69.853
				c0.003,0.002-40.987,33.331-85.876,70.227c-22.445,18.444-45.867,37.777-65.67,54.23l-16.286,13.559
				C697.622,520.347,696.177,521.6,693.995,523.381z"/>
		</g>
	</g>
	<g>
		<g>
			<path fill="#1B1B1B" d="M1147.27,731.629c-2.737-0.66-4.584-1.162-7.854-1.99l-20.794-5.224
				c-25.326-6.337-55.228-13.715-83.845-20.714c-57.232-14.001-109.336-26.459-109.336-26.461c0,0.004-52.086-12.527-109.447-25.993
				l-43.274-10.106l-40.455-9.321l-4.844-1.104c-3.288-0.747-5.161-1.137-7.899-1.792c2.737,0.661,4.584,1.163,7.853,1.991
				l4.817,1.215l40.275,10.063l43.146,10.645c57.222,14.047,109.318,26.529,109.316,26.533c0.002-0.003,52.08,12.556,109.432,26.067
				c28.675,6.758,58.667,13.759,84.108,19.611l20.898,4.787C1142.656,730.584,1144.53,730.975,1147.27,731.629z"/>
		</g>
		<g>
			<path fill="#1B1B1B" d="M479.98,571.406c-2.737-0.661-4.584-1.163-7.853-1.991l-20.794-5.223
				c-25.327-6.337-55.228-13.717-83.845-20.715c-57.233-14.001-109.337-26.458-109.335-26.461
				c-0.001,0.005-52.086-12.527-109.447-25.992l-43.275-10.107l-40.455-9.322l-4.844-1.104c-3.288-0.747-5.161-1.139-7.9-1.792
				c2.738,0.66,4.584,1.163,7.853,1.99l4.817,1.216l40.277,10.062l43.146,10.646c57.221,14.046,109.318,26.529,109.316,26.534
				c0.001-0.005,52.08,12.555,109.43,26.066c28.675,6.758,58.667,13.76,84.108,19.613l20.899,4.788
				C475.369,570.36,477.242,570.751,479.98,571.406z"/>
		</g>
	</g>
	<g>
		<g>
			<path fill="#1B1B1B" d="M277.918,1049.682c1.642-2.287,2.803-3.81,4.799-6.525l12.461-17.021
				c15.107-20.674,32.848-45.12,49.767-68.541c33.843-46.84,64.387-89.591,64.39-89.589c-0.004-0.002,30.603-42.708,63.999-89.866
				l25.146-35.599l23.394-33.326l2.844-4.073c1.93-2.766,2.994-4.354,4.631-6.646c-1.642,2.288-2.803,3.809-4.8,6.525l-2.938,4.006
				L497.6,741.912l-25.596,35.276c-33.882,46.812-64.446,89.547-64.45,89.544c0.002,0.002-30.625,42.691-64.061,89.823
				c-16.72,23.564-34.146,48.236-48.848,69.199l-12.096,17.281C280.622,1045.801,279.556,1047.39,277.918,1049.682z"/>
		</g>
		<g>
			<path fill="#1B1B1B" d="M670.151,501.83c1.642-2.288,2.804-3.809,4.8-6.525l12.461-17.02
				c15.104-20.674,32.847-45.12,49.767-68.541c33.845-46.839,64.389-89.591,64.391-89.588c-0.005-0.002,30.603-42.708,63.999-89.866
				l25.146-35.598l23.394-33.326l2.846-4.073c1.928-2.766,2.993-4.354,4.63-6.646c-1.642,2.288-2.802,3.808-4.799,6.525
				l-2.939,4.005l-24.011,32.885l-25.596,35.277c-33.881,46.811-64.446,89.546-64.45,89.543
				c0.003,0.002-30.625,42.691-64.061,89.824c-16.72,23.562-34.146,48.235-48.849,69.198l-12.096,17.28
				C672.854,497.949,671.789,499.538,670.151,501.83z"/>
		</g>
	</g>
	<g>
		<g>
			<path fill="#1B1B1B" d="M909.357,989.611c-1.75-2.207-2.89-3.744-4.952-6.411l-11.782-15.185
				c-14.053-18.064-30.703-39.319-46.681-59.61c-31.949-40.587-61.217-77.318-61.214-77.32c-0.003,0.003-29.21-36.774-61.582-77.024
				l-24.455-30.326l-22.942-28.26l-3.142-3.85c-2.135-2.611-3.377-4.066-5.132-6.27c1.75,2.206,2.89,3.743,4.951,6.411l3.042,3.93
				l22.358,28.724l24.03,30.664c31.914,40.615,61.159,77.362,61.155,77.364c0.003-0.002,29.188,36.792,61.526,77.07
				c16.167,20.143,33.119,41.155,47.551,58.919l12.137,14.903C906.361,985.953,907.604,987.408,909.357,989.611z"/>
		</g>
		<g>
			<path fill="#1B1B1B" d="M532.023,514.971c-1.75-2.207-2.891-3.744-4.952-6.411l-11.783-15.184
				c-14.053-18.065-30.702-39.32-46.68-59.611c-31.949-40.588-61.216-77.318-61.212-77.321
				c-0.004,0.003-29.211-36.774-61.584-77.025l-24.455-30.326l-22.941-28.261l-3.142-3.849c-2.133-2.61-3.375-4.066-5.13-6.27
				c1.75,2.207,2.889,3.745,4.95,6.413l3.042,3.928l22.358,28.724l24.032,30.664c31.913,40.614,61.157,77.361,61.154,77.365
				c0.003-0.002,29.189,36.792,61.526,77.071c16.167,20.141,33.119,41.155,47.551,58.919l12.135,14.903
				C529.026,511.312,530.268,512.768,532.023,514.971z"/>
		</g>
	</g>
	<g>
		<g>
			<path fill="#1B1B1B" d="M293.002,650.396c2.781-0.449,4.684-0.659,8.022-1.138l12.761-1.857
				c13.572-2.001,29.571-4.44,44.865-6.834c30.589-4.778,58.36-9.372,58.361-9.369c-0.001-0.003,27.782-4.528,58.291-9.795
				l23.004-4.018l21.49-3.854l4.888-0.896c3.316-0.612,5.188-1.021,7.966-1.482c-2.78,0.448-4.685,0.658-8.021,1.135l-4.918,0.709
				l-21.598,3.201l-23.083,3.531c-30.597,4.738-58.371,9.312-58.371,9.31c0,0.002-27.787,4.507-58.302,9.735
				c-15.259,2.609-31.199,5.4-44.701,7.833l-12.688,2.309C297.651,649.526,295.78,649.935,293.002,650.396z"/>
		</g>
		<g>
			<path fill="#1B1B1B" d="M666.854,589.175c2.78-0.45,4.685-0.66,8.021-1.136l12.761-1.858c13.573-2.002,29.572-4.44,44.866-6.834
				c30.589-4.777,58.361-9.37,58.361-9.368c-0.001-0.004,27.782-4.529,58.291-9.795l23.004-4.017l21.491-3.856l4.887-0.896
				c3.314-0.612,5.188-1.022,7.965-1.483c-2.779,0.45-4.684,0.659-8.021,1.136l-4.917,0.708l-21.6,3.2l-23.083,3.53
				c-30.596,4.74-58.37,9.313-58.371,9.311c0.001,0.002-27.784,4.506-58.302,9.734c-15.258,2.61-31.199,5.402-44.701,7.834
				l-12.687,2.309C671.502,588.305,669.631,588.713,666.854,589.175z"/>
		</g>
	</g>
	<g>
		<g>
			<path fill="#1B1B1B" d="M1108.468,604.566c-2.816-0.027-4.729-0.107-8.1-0.182l-19.595-0.396
				c-23.436-0.444-51.08-0.878-77.526-1.229c-52.894-0.706-100.986-1.071-100.985-1.074c-0.001,0.005-48.093-0.437-100.987-0.601
				l-39.897-0.072l-37.273,0.053l-4.97,0.021c-3.37,0.015-5.283,0.062-8.101,0.041c2.816,0.028,4.728,0.108,8.099,0.182l4.968,0.107
				l37.27,0.695l39.892,0.616c52.892,0.752,100.984,1.145,100.983,1.147c0-0.003,48.094,0.464,100.989,0.674
				c26.448,0.107,54.098,0.152,77.536,0.113l19.6-0.058C1103.738,604.592,1105.651,604.545,1108.468,604.566z"/>
		</g>
		<g>
			<path fill="#1B1B1B" d="M488.468,599.202c-2.815-0.028-4.728-0.109-8.098-0.183l-19.596-0.396
				c-23.435-0.445-51.08-0.878-77.526-1.228c-52.893-0.709-100.985-1.072-100.985-1.076c0,0.005-48.092-0.438-100.988-0.601
				l-39.896-0.073l-37.274,0.051l-4.968,0.02c-3.372,0.017-5.285,0.063-8.101,0.042c2.816,0.027,4.728,0.108,8.099,0.183
				l4.967,0.105l37.269,0.697l39.891,0.618c52.891,0.752,100.983,1.144,100.983,1.147c0-0.003,48.093,0.465,100.989,0.675
				c26.447,0.106,54.098,0.152,77.535,0.112l19.6-0.056C483.738,599.227,485.651,599.18,488.468,599.202z"/>
		</g>
	</g>
	<g>
		<g>
			<path fill="#1B1B1B" d="M734.121,1087.278c-0.746-2.716-1.192-4.576-2.046-7.839l-4.963-18.841
				c-5.954-22.495-13.067-49.009-19.934-74.354c-13.727-50.691-26.473-96.708-26.47-96.709
				c-0.004,0.001-12.678-46.035-26.927-96.582l-10.794-38.11l-10.201-35.574l-1.383-4.771c-0.939-3.238-1.511-5.062-2.263-7.777
				c0.745,2.716,1.191,4.575,2.045,7.838l1.261,4.807l9.479,35.771l10.271,38.256c13.681,50.703,26.401,96.728,26.397,96.728
				c0.003,0,12.651,46.043,26.856,96.603c7.099,25.28,14.584,51.691,21.006,74.059l5.397,18.721
				C732.799,1082.737,733.369,1084.562,734.121,1087.278z"/>
		</g>
		<g>
			<path fill="#1B1B1B" d="M570.356,493.606c-0.746-2.717-1.193-4.576-2.046-7.84l-4.963-18.84
				c-5.953-22.496-13.065-49.009-19.933-74.354c-13.725-50.691-26.471-96.708-26.468-96.709
				c-0.005,0.001-12.678-46.036-26.926-96.582l-10.796-38.111l-10.199-35.574l-1.382-4.771c-0.939-3.238-1.512-5.064-2.263-7.778
				c0.746,2.715,1.192,4.576,2.045,7.838l1.261,4.805l9.479,35.773l10.271,38.255c13.681,50.703,26.401,96.726,26.397,96.728
				c0.002,0,12.65,46.043,26.854,96.604c7.099,25.279,14.585,51.69,21.006,74.058l5.397,18.72
				C569.034,489.065,569.604,490.892,570.356,493.606z"/>
		</g>
	</g>
	<g>
		<g>
			<path fill="#1B1B1B" d="M401.562,1098.007c1.045-2.616,1.808-4.37,3.094-7.485l7.798-18.979
				c9.389-22.921,20.376-49.996,30.828-75.92c20.909-51.844,39.659-99.086,39.662-99.084c-0.004-0.002,18.816-47.215,39.218-99.261
				l15.339-39.273l14.217-36.734l1.781-4.639c1.208-3.146,1.858-4.947,2.896-7.564c-1.044,2.615-1.809,4.369-3.095,7.485
				l-1.894,4.595l-14.919,36.455l-15.85,39.069c-20.951,51.827-39.727,99.06-39.729,99.058c0.002,0.001-18.845,47.205-39.288,99.233
				c-10.225,26.015-20.852,53.232-29.783,76.335l-7.378,19.146C403.252,1093.59,402.601,1095.389,401.562,1098.007z"/>
		</g>
		<g>
			<path fill="#1B1B1B" d="M643.104,491.259c1.046-2.616,1.81-4.371,3.096-7.486l7.797-18.979
				c9.39-22.921,20.377-49.996,30.829-75.919c20.908-51.844,39.658-99.086,39.662-99.084c-0.005-0.002,18.816-47.214,39.218-99.26
				l15.339-39.273l14.218-36.735l1.781-4.638c1.207-3.148,1.857-4.947,2.896-7.565c-1.045,2.616-1.809,4.37-3.097,7.486
				l-1.894,4.594l-14.918,36.455l-15.851,39.07c-20.95,51.826-39.727,99.057-39.729,99.055c0.002,0.002-18.844,47.205-39.287,99.234
				c-10.227,26.014-20.852,53.233-29.785,76.335l-7.378,19.146C644.794,486.842,644.144,488.641,643.104,491.259z"/>
		</g>
	</g>
	<g>
		<g>
			<path fill="#1B1B1B" d="M517.838,1015.018c0.549-2.763,0.995-4.623,1.698-7.921l3.455-16.329
				c3.953-18.81,8.531-41.017,12.847-62.271c8.641-42.509,16.231-81.212,16.234-81.211c-0.004-0.001,7.66-38.689,15.781-81.3
				l6.079-32.147l5.569-30.063l0.89-4.889c0.604-3.317,0.896-5.209,1.438-7.973c-0.549,2.763-0.996,4.623-1.699,7.921l-1.034,4.86
				l-6.274,29.923l-6.598,32.046c-8.682,42.5-16.298,81.198-16.302,81.197c0.002,0.001-7.686,38.685-15.85,81.287
				c-4.087,21.301-8.293,43.581-11.787,62.481l-3.01,16.417C518.674,1010.362,518.38,1012.254,517.838,1015.018z"/>
		</g>
		<g>
			<path fill="#1B1B1B" d="M617.669,509.413c0.549-2.762,0.995-4.624,1.698-7.92l3.455-16.33
				c3.952-18.81,8.531-41.016,12.848-62.272c8.641-42.509,16.231-81.212,16.234-81.209c-0.004-0.002,7.66-38.689,15.781-81.3
				l6.079-32.148l5.569-30.063l0.89-4.888c0.604-3.317,0.896-5.208,1.438-7.971c-0.549,2.762-0.996,4.623-1.699,7.92l-1.034,4.86
				l-6.275,29.924l-6.597,32.044c-8.683,42.501-16.299,81.198-16.303,81.198c0.004,0-7.685,38.683-15.851,81.286
				c-4.087,21.301-8.291,43.581-11.785,62.482l-3.011,16.417C618.506,504.758,618.211,506.648,617.669,509.413z"/>
		</g>
	</g>
	<g>
		<g>
			<path fill="#1B1B1B" d="M1112.91,705.734c-2.759-0.571-4.619-1.018-7.912-1.738l-19.654-4.274
				c-23.637-5.111-51.54-11.05-78.244-16.668c-53.408-11.241-102.024-21.19-102.023-21.193
				c-0.001,0.004-48.602-10.021-102.118-20.729l-40.375-8.026l-37.743-7.381l-4.879-0.94c-3.312-0.637-5.196-0.961-7.955-1.525
				c2.758,0.57,4.618,1.019,7.911,1.739l4.854,1.061l37.593,8.117l40.265,8.563c53.397,11.286,102.008,21.263,102.007,21.266
				c0.001-0.003,48.598,10.047,102.104,20.801c26.754,5.38,54.736,10.938,78.471,15.571l19.745,3.831
				C1108.265,704.845,1110.15,705.169,1112.91,705.734z"/>
		</g>
		<g>
			<path fill="#1B1B1B" d="M487.495,577.07c-2.758-0.571-4.618-1.018-7.912-1.739l-19.654-4.273
				c-23.637-5.112-51.54-11.051-78.245-16.669c-53.407-11.242-102.023-21.19-102.022-21.193c0,0.004-48.601-10.021-102.118-20.728
				l-40.375-8.026l-37.743-7.383l-4.879-0.939c-3.312-0.636-5.197-0.961-7.956-1.525c2.758,0.571,4.619,1.018,7.912,1.739
				l4.854,1.062l37.592,8.118l40.265,8.562c53.397,11.288,102.008,21.262,102.007,21.267c0-0.003,48.596,10.047,102.104,20.8
				c26.753,5.381,54.733,10.938,78.47,15.572l19.745,3.832C482.851,576.18,484.736,576.505,487.495,577.07z"/>
		</g>
	</g>
	<g>
		<g>
			<path fill="#1B1B1B" d="M882.877,1045.963c-1.507-2.38-2.48-4.025-4.252-6.896l-10.668-17.219
				c-12.868-20.719-28.129-45.108-42.781-68.406c-29.299-46.6-56.174-88.818-56.171-88.82c-0.004,0.002-26.812-42.258-56.573-88.562
				l-22.487-34.897l-21.11-32.538l-2.715-4.16c-1.845-2.823-2.922-4.404-4.436-6.78c1.509,2.381,2.48,4.026,4.252,6.896l2.611,4.227
				l20.477,32.941l22.025,35.191c29.259,46.622,56.11,88.855,56.107,88.858c0.002-0.002,26.79,42.272,56.511,88.604
				c14.856,23.167,30.446,47.351,43.728,67.806l11.05,16.978C880.287,1042.006,881.364,1043.587,882.877,1045.963z"/>
		</g>
		<g>
			<path fill="#1B1B1B" d="M537.816,502.644c-1.509-2.378-2.481-4.024-4.251-6.895l-10.669-17.217
				c-12.868-20.72-28.13-45.11-42.78-68.408c-29.301-46.598-56.174-88.818-56.171-88.82c-0.003,0.002-26.813-42.257-56.572-88.562
				l-22.489-34.898l-21.109-32.539l-2.716-4.161c-1.844-2.822-2.922-4.403-4.434-6.779c1.507,2.379,2.48,4.026,4.251,6.896
				l2.611,4.228l20.475,32.941l22.026,35.191c29.258,46.624,56.109,88.857,56.105,88.859c0.002-0.002,26.79,42.273,56.512,88.604
				c14.856,23.167,30.445,47.35,43.727,67.806l11.049,16.978C535.227,498.688,536.304,500.269,537.816,502.644z"/>
		</g>
	</g>
	<g>
		<g>
			<path fill="#1B1B1B" d="M298.986,603.154c2.815-0.022,4.729,0.062,8.101,0.1l12.554,0.104
				c13.227,0.084,28.826,0.104,43.749,0.065c29.847-0.07,56.98-0.385,56.98-0.382c0-0.003,27.135-0.25,56.975-0.812l22.506-0.467
				l21.042-0.538l4.968-0.146c3.37-0.105,5.281-0.229,8.098-0.263c-2.817,0.021-4.729-0.063-8.102-0.102l-4.969-0.048l-21.049-0.12
				l-22.511-0.019c-29.846,0.031-56.979,0.325-56.98,0.321c0,0.003-27.135,0.229-56.976,0.752
				c-14.921,0.258-30.519,0.591-43.739,0.938l-12.551,0.354C303.714,602.997,301.802,603.12,298.986,603.154z"/>
		</g>
		<g>
			<path fill="#1B1B1B" d="M665.544,599.509c2.816-0.021,4.73,0.062,8.101,0.101l12.557,0.103
				c13.225,0.085,28.825,0.106,43.748,0.067c29.846-0.07,56.979-0.385,56.979-0.381c0-0.005,27.136-0.25,56.977-0.812l22.506-0.467
				l21.042-0.538l4.967-0.146c3.371-0.104,5.281-0.229,8.099-0.263c-2.815,0.022-4.729-0.062-8.103-0.101l-4.969-0.048l-21.05-0.119
				l-22.51-0.021c-29.847,0.033-56.979,0.326-56.979,0.322c-0.001,0.003-27.137,0.229-56.979,0.751
				c-14.92,0.257-30.518,0.59-43.737,0.938l-12.551,0.354C670.271,599.352,668.36,599.475,665.544,599.509z"/>
		</g>
	</g>
	<g>
		<g>
			<path fill="#1B1B1B" d="M1128.688,440.266c-2.696,0.812-4.543,1.311-7.782,2.246l-20.246,5.887
				c-24.567,7.167-53.521,15.718-81.199,23.957c-55.356,16.473-105.608,31.717-105.608,31.714c0,0.005-50.272,15.177-105.472,32.174
				l-41.617,12.869l-38.843,12.139l-4.739,1.494c-3.215,1.015-5.027,1.625-7.724,2.444c2.697-0.812,4.545-1.311,7.784-2.245
				l4.771-1.382l39.063-11.411l41.775-12.342c55.371-16.428,105.63-31.646,105.633-31.643
				c-0.001-0.004,50.279-15.149,105.493-32.103c27.605-8.475,56.446-17.396,80.871-25.039l20.116-6.315
				C1124.179,441.694,1125.992,441.083,1128.688,440.266z"/>
		</g>
		<g>
			<path fill="#1B1B1B" d="M484.044,635.142c-2.697,0.812-4.544,1.311-7.783,2.245l-20.247,5.887
				c-24.565,7.167-53.521,15.717-81.197,23.955c-55.357,16.473-105.609,31.718-105.61,31.715
				c0.001,0.004-50.271,15.176-105.47,32.174l-41.617,12.868l-38.843,12.14l-4.739,1.493c-3.215,1.016-5.028,1.625-7.723,2.442
				c2.697-0.812,4.544-1.31,7.783-2.244l4.772-1.383l39.063-11.41l41.777-12.343c55.371-16.427,105.629-31.646,105.63-31.642
				c-0.001-0.003,50.281-15.148,105.493-32.103c27.607-8.475,56.448-17.395,80.872-25.036l20.116-6.316
				C479.536,636.568,481.349,635.959,484.044,635.142z"/>
		</g>
	</g>
	<g>
		<g>
			<path fill="#1B1B1B" d="M420.703,995.962c1.165-2.565,2.021-4.276,3.456-7.327l7.246-15.469
				c8.369-17.931,18.164-39.12,27.474-59.415c18.627-40.589,35.317-77.604,35.32-77.603c-0.003-0.003,16.754-36.985,34.898-77.793
				l13.641-30.798l12.643-28.824l1.982-4.557c1.344-3.093,2.062-4.867,3.22-7.434c-1.164,2.563-2.021,4.274-3.457,7.326
				l-2.113,4.497l-13.303,28.526l-14.123,30.578c-18.667,40.569-35.38,77.574-35.384,77.573c0.003,0-16.777,36.976-34.961,77.764
				c-9.096,20.393-18.543,41.739-26.484,59.864l-6.833,15.655C422.58,991.621,421.861,993.395,420.703,995.962z"/>
		</g>
		<g>
			<path fill="#1B1B1B" d="M638.918,513.581c1.164-2.564,2.021-4.275,3.455-7.326l7.246-15.468
				c8.37-17.932,18.165-39.121,27.475-59.416c18.627-40.588,35.317-77.604,35.321-77.603c-0.004-0.001,16.753-36.986,34.896-77.792
				l13.643-30.798l12.642-28.825l1.982-4.557c1.344-3.093,2.062-4.866,3.221-7.433c-1.164,2.563-2.021,4.275-3.457,7.327
				l-2.111,4.496l-13.304,28.527l-14.124,30.579c-18.667,40.57-35.38,77.575-35.384,77.573c0.003,0.001-16.778,36.975-34.963,77.764
				c-9.096,20.394-18.543,41.739-26.484,59.864l-6.833,15.656C640.795,509.241,640.075,511.014,638.918,513.581z"/>
		</g>
	</g>
	<g>
		<g>
			<path fill="#1B1B1B" d="M131.771,850.271c2.486-1.324,4.202-2.173,7.194-3.724l18.044-9.389
				c21.734-11.338,47.328-24.797,71.781-37.729c48.909-25.855,93.247-49.61,93.249-49.607c-0.002-0.003,44.371-23.691,93.021-50.028
				l36.67-19.909l34.2-18.705l4.354-2.396c2.952-1.627,4.609-2.582,7.093-3.913c-2.485,1.325-4.201,2.173-7.194,3.724l-4.409,2.287
				l-34.558,18.043l-36.929,19.425c-48.93,25.815-93.28,49.546-93.282,49.542c0.001,0.003-44.385,23.667-93.059,49.964
				c-24.338,13.146-49.749,26.947-71.251,38.718l-17.833,9.785C135.912,847.986,134.254,848.941,131.771,850.271z"/>
		</g>
		<g>
			<path fill="#1B1B1B" d="M702.122,545.45c2.485-1.325,4.2-2.172,7.193-3.725l18.044-9.388
				c21.733-11.338,47.328-24.796,71.781-37.727c48.909-25.856,93.247-49.61,93.249-49.608c-0.002-0.003,44.371-23.69,93.022-50.027
				l36.67-19.909l34.201-18.705l4.354-2.396c2.953-1.628,4.61-2.583,7.094-3.913c-2.485,1.325-4.201,2.172-7.195,3.723l-4.409,2.287
				l-34.557,18.042l-36.93,19.425c-48.931,25.813-93.28,49.545-93.282,49.542c0.002,0.002-44.386,23.667-93.059,49.963
				c-24.339,13.145-49.75,26.946-71.253,38.716l-17.832,9.786C706.263,543.165,704.604,544.12,702.122,545.45z"/>
		</g>
	</g>
	<g>
		<g>
			<path fill="#1B1B1B" d="M1071.463,686.296c-2.771-0.508-4.64-0.918-7.946-1.57l-18.266-3.563
				c-21.603-4.188-47.1-9.04-71.502-13.618c-48.805-9.162-93.229-17.222-93.229-17.226c0,0.005-44.41-8.131-93.312-16.763
				l-36.892-6.462l-34.49-5.922l-4.898-0.827c-3.325-0.56-5.219-0.836-7.989-1.339c2.771,0.509,4.64,0.919,7.946,1.571l4.875,0.958
				l34.357,6.648l36.795,6.992c48.797,9.206,93.216,17.292,93.215,17.296c0-0.003,44.406,8.156,93.3,16.834
				c24.446,4.343,50.015,8.813,71.7,12.53l18.346,3.12C1066.799,685.517,1068.691,685.794,1071.463,686.296z"/>
		</g>
		<g>
			<path fill="#1B1B1B" d="M496.562,581.322c-2.771-0.509-4.64-0.919-7.947-1.571l-18.266-3.563
				c-21.601-4.188-47.099-9.041-71.502-13.618c-48.806-9.162-93.229-17.224-93.229-17.227c0,0.004-44.411-8.129-93.312-16.762
				l-36.891-6.463l-34.49-5.922l-4.899-0.827c-3.325-0.561-5.218-0.836-7.989-1.339c2.77,0.509,4.639,0.92,7.947,1.57l4.875,0.958
				l34.357,6.649l36.794,6.993c48.796,9.207,93.215,17.292,93.213,17.296c0-0.003,44.406,8.157,93.3,16.834
				c24.446,4.342,50.014,8.814,71.7,12.531l18.347,3.12C491.896,580.542,493.791,580.819,496.562,581.322z"/>
		</g>
	</g>
	<g>
		<g>
			<path fill="#1B1B1B" d="M974.148,993.774c-1.939-2.044-3.215-3.471-5.508-5.941l-14.148-15.201
				c-17.144-18.38-37.436-39.995-56.893-60.628c-38.91-41.271-74.49-78.603-74.487-78.604c-0.005,0.002-35.528-37.381-74.835-78.273
				l-29.685-30.808l-27.817-28.696l-3.469-3.559c-2.354-2.414-3.715-3.76-5.658-5.798c1.938,2.044,3.214,3.471,5.507,5.942
				l3.381,3.641l27.27,29.219l29.285,31.187c38.876,41.303,74.437,78.652,74.435,78.655c0.002-0.003,35.509,37.398,74.781,78.325
				c19.635,20.464,40.208,41.812,57.707,59.852l14.477,14.893C970.844,990.392,972.204,991.736,974.148,993.774z"/>
		</g>
		<g>
			<path fill="#1B1B1B" d="M517.85,514.06c-1.938-2.043-3.214-3.47-5.506-5.94l-14.149-15.202
				c-17.142-18.381-37.434-39.996-56.892-60.629c-38.91-41.271-74.49-78.602-74.487-78.605c-0.003,0.003-35.528-37.38-74.833-78.273
				l-29.684-30.808l-27.818-28.696l-3.467-3.559c-2.354-2.414-3.716-3.758-5.659-5.796c1.939,2.043,3.213,3.47,5.506,5.942
				l3.381,3.641l27.27,29.217l29.284,31.187c38.875,41.302,74.438,78.652,74.434,78.655c0.002-0.002,35.508,37.401,74.78,78.326
				c19.634,20.466,40.208,41.813,57.708,59.853l14.476,14.892C514.545,510.677,515.906,512.021,517.85,514.06z"/>
		</g>
	</g>
	<g>
		<g>
			<path fill="#1B1B1B" d="M624.388,982.11c-0.178-2.812-0.216-4.727-0.377-8.094l-0.76-15.312
				c-0.883-17.229-2.005-37.546-3.146-56.979c-2.269-38.864-4.595-74.185-4.592-74.185c-0.005,0.001-2.259-35.323-5.044-74.155
				l-2.147-29.284l-2.117-27.361l-0.4-4.952c-0.272-3.361-0.479-5.264-0.666-8.074c0.178,2.812,0.215,4.726,0.376,8.093l0.239,4.963
				l1.417,27.407l1.632,29.318c2.229,38.866,4.529,74.188,4.525,74.188c0.003,0.001,2.232,35.326,4.979,74.16
				c1.366,19.418,2.862,39.712,4.202,56.91l1.214,15.283C623.995,977.396,624.203,979.3,624.388,982.11z"/>
		</g>
		<g>
			<path fill="#1B1B1B" d="M594.36,516.612c-0.178-2.812-0.217-4.727-0.377-8.094l-0.761-15.312
				c-0.882-17.229-2.005-37.546-3.144-56.979c-2.27-38.863-4.595-74.184-4.592-74.185c-0.003,0-2.259-35.324-5.043-74.154
				l-2.147-29.284l-2.117-27.363l-0.399-4.953c-0.273-3.361-0.481-5.264-0.667-8.075c0.177,2.812,0.216,4.725,0.376,8.093
				l0.238,4.963l1.416,27.407l1.633,29.318c2.226,38.867,4.528,74.188,4.525,74.188c0.003-0.001,2.233,35.326,4.978,74.16
				c1.365,19.417,2.862,39.711,4.202,56.91l1.214,15.284C593.968,511.897,594.175,513.801,594.36,516.612z"/>
		</g>
	</g>
	<g>
		<g>
			<path fill="#1B1B1B" d="M1115.465,418.44c-2.658,0.934-4.479,1.513-7.675,2.594l-19.774,6.729
				c-23.949,8.177-52.171,17.915-79.146,27.29c-53.952,18.747-102.913,36.054-102.915,36.052
				c0.002,0.004-48.984,17.239-102.753,36.501l-40.537,14.576l-37.829,13.731l-4.667,1.707c-3.166,1.161-4.949,1.853-7.604,2.792
				c2.657-0.935,4.48-1.513,7.676-2.593l4.705-1.596l38.081-13.017l40.721-14.058c53.967-18.701,102.936-35.982,102.938-35.979
				c-0.002-0.004,48.995-17.214,102.779-36.432c26.894-9.606,54.986-19.711,78.771-28.355l19.626-7.153
				C1111.025,420.07,1112.809,419.379,1115.465,418.44z"/>
		</g>
		<g>
			<path fill="#1B1B1B" d="M486.938,639.916c-2.657,0.934-4.479,1.514-7.674,2.595l-19.773,6.729
				c-23.95,8.177-52.171,17.915-79.146,27.291c-53.952,18.744-102.913,36.052-102.914,36.048
				c0.001,0.005-48.985,17.239-102.754,36.501l-40.537,14.576l-37.83,13.73l-4.666,1.706c-3.166,1.161-4.95,1.854-7.605,2.791
				c2.657-0.933,4.48-1.512,7.674-2.592l4.705-1.596l38.082-13.019l40.72-14.057c53.967-18.7,102.938-35.981,102.938-35.979
				c0-0.003,48.995-17.213,102.78-36.431c26.893-9.606,54.984-19.71,78.771-28.354l19.625-7.152
				C482.498,641.547,484.282,640.855,486.938,639.916z"/>
		</g>
	</g>
	<g>
		<g>
			<path fill="#1B1B1B" d="M737.521,870.428c-1.272-2.512-2.051-4.262-3.519-7.297l-5.537-11.365
				c-5.87-11.991-12.865-26.104-19.609-39.574c-13.481-26.947-25.964-51.334-25.962-51.336c-0.003,0.002-12.424-24.416-26.344-51.14
				l-10.538-20.135l-9.942-18.78l-2.345-4.382c-1.594-2.973-2.554-4.629-3.839-7.135c1.273,2.512,2.051,4.263,3.52,7.298l2.17,4.471
				l9.354,19.079l10.104,20.357c13.447,26.964,25.91,51.358,25.907,51.359c0.003,0,12.403,24.427,26.291,51.168
				c6.938,13.372,14.25,27.322,20.506,39.118l5.943,11.157C735.278,866.265,736.238,867.922,737.521,870.428z"/>
		</g>
		<g>
			<path fill="#1B1B1B" d="M569.612,541.042c-1.274-2.513-2.05-4.263-3.52-7.298l-5.538-11.365
				c-5.87-11.992-12.864-26.104-19.608-39.575c-13.481-26.947-25.963-51.335-25.961-51.336
				c-0.002,0.002-12.423-24.416-26.344-51.139l-10.538-20.135l-9.943-18.78l-2.343-4.381c-1.594-2.973-2.556-4.628-3.839-7.135
				c1.273,2.512,2.05,4.263,3.519,7.297l2.17,4.471l9.355,19.081l10.104,20.356c13.447,26.964,25.91,51.359,25.907,51.362
				c0.003-0.002,12.404,24.426,26.291,51.166c6.938,13.373,14.25,27.323,20.506,39.119l5.944,11.158
				C567.367,536.878,568.328,538.536,569.612,541.042z"/>
		</g>
	</g>
	<g>
		<g>
			<path fill="#1B1B1B" d="M639.364,965.77c-0.299-2.801-0.418-4.711-0.725-8.067l-1.37-14.76
				c-1.554-16.441-3.468-35.828-5.361-54.365c-3.778-37.078-7.478-70.761-7.475-70.76c-0.004,0-3.63-33.69-7.92-70.711
				l-3.282-27.919l-3.177-26.08l-0.617-4.931c-0.422-3.347-0.716-5.237-1.022-8.037c0.3,2.801,0.418,4.711,0.723,8.068l0.452,4.949
				l2.484,26.155l2.772,27.974c3.738,37.08,7.413,70.765,7.409,70.766c0.003-0.001,3.605,33.692,7.855,70.72
				c2.121,18.513,4.402,37.859,6.406,54.252l1.823,14.71C638.764,961.078,639.057,962.97,639.364,965.77z"/>
		</g>
		<g>
			<path fill="#1B1B1B" d="M591.085,520.186c-0.299-2.801-0.418-4.711-0.724-8.068l-1.371-14.759
				c-1.553-16.442-3.467-35.828-5.361-54.365c-3.779-37.077-7.476-70.76-7.474-70.759c-0.004,0-3.629-33.69-7.92-70.71
				l-3.282-27.917l-3.176-26.082l-0.618-4.93c-0.421-3.346-0.714-5.237-1.021-8.037c0.3,2.8,0.417,4.711,0.723,8.069l0.452,4.949
				l2.483,26.156l2.774,27.972c3.737,37.081,7.412,70.765,7.408,70.765c0.002,0,3.605,33.693,7.854,70.719
				c2.12,18.515,4.403,37.86,6.408,54.252l1.823,14.71C590.483,515.494,590.777,517.386,591.085,520.186z"/>
		</g>
	</g>
	<g>
		<g>
			<path fill="#1B1B1B" d="M354.646,769.922c2.318-1.599,3.951-2.602,6.763-4.462l10.376-6.91
				c10.887-7.276,23.687-15.929,35.896-24.252c24.425-16.642,46.489-31.978,46.491-31.976c-0.002-0.003,22.103-15.283,46.246-32.326
				l18.188-12.893l16.945-12.136l4.029-2.91c2.729-1.978,4.243-3.152,6.555-4.763c-2.318,1.6-3.951,2.602-6.763,4.462l-4.14,2.748
				l-17.32,11.599l-18.462,12.491c-24.446,16.609-46.521,31.929-46.523,31.927c0.001,0.002-22.113,15.265-46.281,32.276
				c-12.085,8.504-24.685,17.444-35.326,25.077l-10.116,7.284C358.471,767.138,356.958,768.312,354.646,769.922z"/>
		</g>
		<g>
			<path fill="#1B1B1B" d="M653.368,563.027c2.318-1.599,3.951-2.602,6.763-4.462l10.376-6.909
				c10.888-7.278,23.688-15.931,35.897-24.252c24.424-16.642,46.487-31.978,46.488-31.976c-0.001-0.002,22.104-15.282,46.247-32.327
				l18.187-12.891l16.947-12.136l4.027-2.909c2.73-1.978,4.242-3.153,6.555-4.762c-2.317,1.599-3.95,2.601-6.763,4.461l-4.141,2.748
				l-17.32,11.597l-18.462,12.492c-24.445,16.61-46.521,31.929-46.523,31.926c0.002,0.002-22.113,15.265-46.28,32.278
				c-12.085,8.503-24.686,17.442-35.327,25.077l-10.115,7.283C657.192,560.243,655.681,561.418,653.368,563.027z"/>
		</g>
	</g>
	<g>
		<g>
			<path fill="#1B1B1B" d="M420.079,930.757c1.349-2.473,2.337-4.11,3.997-7.047l7.415-13.167
				c8.285-14.767,17.985-32.227,27.21-48.959c18.455-33.462,35.004-64.012,35.006-64.01c-0.003-0.002,16.608-30.518,34.609-64.224
				l13.537-25.445l12.555-23.834l2.301-4.404c1.561-2.989,2.396-4.711,3.738-7.188c-1.35,2.473-2.338,4.111-3.998,7.046
				l-2.444,4.327l-13.17,23.5l-13.988,25.198c-18.49,33.44-35.061,63.979-35.062,63.977c0.001,0.003-16.63,30.506-34.669,64.192
				c-9.022,16.843-18.396,34.479-26.281,49.466l-7.015,13.385C422.258,926.56,421.421,928.28,420.079,930.757z"/>
		</g>
		<g>
			<path fill="#1B1B1B" d="M639.053,527.845c1.35-2.473,2.337-4.111,3.997-7.046l7.415-13.168
				c8.286-14.767,17.987-32.227,27.21-48.959c18.457-33.461,35.005-64.01,35.008-64.009c-0.004-0.001,16.607-30.516,34.609-64.224
				l13.536-25.444l12.556-23.834l2.3-4.404c1.561-2.989,2.396-4.71,3.738-7.187c-1.348,2.473-2.338,4.111-3.997,7.046l-2.443,4.326
				l-13.172,23.5l-13.986,25.199c-18.492,33.44-35.062,63.978-35.064,63.977c0.003,0.001-16.631,30.504-34.669,64.19
				c-9.022,16.843-18.396,34.48-26.281,49.465l-7.016,13.385C641.232,523.646,640.395,525.368,639.053,527.845z"/>
		</g>
	</g>
	<g>
		<g>
			<path fill="#1B1B1B" d="M878.018,741.323c-2.511-1.279-4.171-2.234-7.146-3.82l-11.431-6.055
				c-12.188-6.427-26.601-13.938-40.413-21.069c-27.624-14.27-52.855-27.018-52.854-27.021
				c-0.002,0.004-25.202-12.808-53.051-26.635l-21.023-10.39l-19.702-9.621l-4.474-2.164c-3.038-1.463-4.789-2.237-7.304-3.508
				c2.51,1.279,4.169,2.234,7.145,3.821l4.389,2.332l19.4,10.215l20.803,10.828c27.605,14.304,52.827,27.07,52.825,27.073
				c0.001-0.002,25.192,12.827,53.022,26.689c13.914,6.936,28.486,14.127,40.872,20.165l11.638,5.647
				C873.751,739.278,875.502,740.054,878.018,741.323z"/>
		</g>
		<g>
			<path fill="#1B1B1B" d="M538.879,569.285c-2.509-1.279-4.169-2.233-7.145-3.82l-11.433-6.054
				c-12.186-6.427-26.599-13.939-40.412-21.07c-27.624-14.27-52.854-27.018-52.854-27.02c-0.001,0.003-25.2-12.809-53.049-26.636
				l-21.023-10.39l-19.703-9.622l-4.474-2.163c-3.038-1.463-4.789-2.239-7.302-3.507c2.509,1.279,4.168,2.233,7.144,3.821
				l4.388,2.332l19.401,10.214l20.801,10.828c27.606,14.304,52.828,27.07,52.826,27.074c0-0.002,25.191,12.827,53.021,26.689
				c13.914,6.936,28.486,14.127,40.871,20.166l11.638,5.648C534.614,567.24,536.364,568.016,538.879,569.285z"/>
		</g>
	</g>
	<g>
		<g>
			<path fill="#1B1B1B" d="M926.021,569.005c-2.806,0.263-4.718,0.351-8.079,0.604l-13.429,1.053
				c-14.504,1.163-31.604,2.615-47.96,4.064c-32.708,2.893-62.423,5.776-62.423,5.773c0,0.003-29.721,2.818-62.382,6.208
				l-24.629,2.602l-23.015,2.537l-4.938,0.562c-3.351,0.387-5.245,0.665-8.048,0.937c2.804-0.262,4.717-0.348,8.079-0.603
				l4.954-0.38l23.079-1.867l24.677-2.106c32.711-2.852,62.429-5.714,62.429-5.711c-0.001-0.002,29.725-2.794,62.388-6.146
				c16.333-1.672,33.4-3.482,47.862-5.086l13.385-1.508C921.323,569.556,923.218,569.278,926.021,569.005z"/>
		</g>
		<g>
			<path fill="#1B1B1B" d="M528.378,606.98c-2.805,0.263-4.717,0.349-8.08,0.604l-13.427,1.053
				c-14.503,1.162-31.605,2.615-47.959,4.065c-32.708,2.891-62.423,5.773-62.424,5.771c0,0.004-29.722,2.818-62.38,6.208
				l-24.63,2.604l-23.014,2.535l-4.937,0.562c-3.351,0.387-5.244,0.664-8.047,0.938c2.804-0.264,4.717-0.35,8.08-0.604l4.954-0.382
				l23.079-1.865l24.678-2.105c32.711-2.854,62.428-5.715,62.428-5.711c0-0.002,29.723-2.795,62.388-6.146
				c16.333-1.672,33.4-3.482,47.862-5.086l13.384-1.507C523.681,607.53,525.575,607.253,528.378,606.98z"/>
		</g>
	</g>
	<g>
		<g>
			<path fill="#1B1B1B" d="M933.616,251.386c-1.95,2.032-3.321,3.367-5.687,5.771l-13.107,13.367
				c-15.5,15.845-33.721,34.6-51.102,52.585c-34.771,35.965-66.185,68.856-66.188,68.854c0.004,0.003-31.464,32.841-65.844,69.179
				l-25.896,27.441l-24.106,25.72l-3.389,3.635c-2.298,2.468-3.57,3.896-5.517,5.933c1.95-2.033,3.32-3.367,5.687-5.771l3.482-3.543
				l24.644-25.208l26.284-27.068c34.802-35.934,66.234-68.805,66.237-68.803c-0.002-0.002,31.484-32.824,65.897-69.13
				c17.208-18.15,35.15-37.172,50.304-53.35l12.78-13.68C930.396,254.851,931.67,253.422,933.616,251.386z"/>
		</g>
		<g>
			<path fill="#1B1B1B" d="M526.718,676.46c-1.95,2.032-3.32,3.367-5.686,5.771l-13.108,13.365
				c-15.5,15.846-33.72,34.601-51.102,52.584c-34.771,35.967-66.184,68.856-66.187,68.854c0.003,0.003-31.465,32.841-65.844,69.179
				l-25.895,27.441l-24.109,25.72l-3.387,3.635c-2.298,2.469-3.571,3.896-5.516,5.934c1.95-2.033,3.321-3.367,5.686-5.771
				l3.483-3.543l24.644-25.208l26.284-27.068c34.801-35.933,66.233-68.806,66.236-68.803c-0.002-0.002,31.485-32.822,65.897-69.129
				c17.209-18.149,35.149-37.172,50.303-53.349l12.782-13.681C523.499,679.924,524.771,678.496,526.718,676.46z"/>
		</g>
	</g>
	<g>
		<g>
			<path fill="#1B1B1B" d="M405.229,881.177c1.606-2.312,2.771-3.832,4.741-6.568l8.131-11.35
				c8.869-12.424,19.267-27.126,29.161-41.226c19.795-28.193,37.582-53.977,37.583-53.975c-0.002-0.002,17.841-25.743,37.221-54.226
				l14.579-21.508l13.541-20.165l2.754-4.136c1.866-2.81,2.878-4.435,4.477-6.752c-1.607,2.312-2.771,3.831-4.742,6.567
				l-2.899,4.035l-14.103,19.777l-14.993,21.222c-19.827,28.17-37.632,53.938-37.635,53.937c0.002,0.001-17.86,25.73-37.272,54.189
				c-9.708,14.229-19.808,29.137-28.309,41.815l-7.757,11.607C407.839,877.233,406.827,878.858,405.229,881.177z"/>
		</g>
		<g>
			<path fill="#1B1B1B" d="M642.513,538.896c1.607-2.312,2.771-3.832,4.741-6.569l8.115-11.325
				c8.846-12.389,19.214-27.051,29.082-41.112c19.741-28.114,37.479-53.827,37.48-53.825c-0.004-0.002,17.791-25.671,37.117-54.076
				l14.538-21.449l13.503-20.11l2.755-4.135c1.866-2.808,2.878-4.434,4.478-6.753c-1.607,2.313-2.771,3.833-4.743,6.569
				l-2.899,4.035l-14.063,19.723l-14.952,21.163c-19.773,28.092-37.529,53.792-37.532,53.789
				c0.002,0.002-17.812,25.66-37.171,54.042c-9.682,14.188-19.751,29.057-28.229,41.7l-7.74,11.584
				C645.123,534.953,644.111,536.579,642.513,538.896z"/>
		</g>
	</g>
	<g>
		<g>
			<path fill="#1B1B1B" d="M914.84,246.34c-1.873,2.103-3.195,3.486-5.47,5.975l-12.429,13.638
				c-14.646,16.114-31.857,35.182-48.273,53.465c-32.836,36.562-62.487,69.988-62.489,69.986
				c0.002,0.003-29.704,33.378-62.138,70.296l-24.427,27.878l-22.734,26.126l-3.251,3.758c-2.205,2.55-3.424,4.025-5.293,6.131
				c1.874-2.102,3.196-3.484,5.472-5.974l3.352-3.668l23.286-25.635l24.828-27.521c32.868-36.532,62.539-69.939,62.543-69.938
				c-0.003-0.002,29.724-33.361,62.191-70.25c16.237-18.442,33.16-37.766,47.448-54.198l12.091-13.94
				C911.751,249.922,912.971,248.448,914.84,246.34z"/>
		</g>
		<g>
			<path fill="#1B1B1B" d="M530.6,677.818c-1.874,2.104-3.195,3.485-5.47,5.975l-12.401,13.608
				c-14.608,16.068-31.773,35.087-48.146,53.32c-32.75,36.463-62.321,69.8-62.323,69.798c0.003,0.002-29.624,33.288-61.972,70.108
				l-24.361,27.804l-22.673,26.058l-3.25,3.758c-2.205,2.55-3.424,4.024-5.292,6.132c1.873-2.103,3.196-3.485,5.471-5.974
				l3.352-3.668l23.225-25.566l24.763-27.446c32.782-36.434,62.373-69.752,62.376-69.749c-0.003-0.003,29.645-33.271,62.025-70.062
				c16.193-18.394,33.072-37.666,47.322-54.054l12.062-13.908C527.512,681.4,528.731,679.926,530.6,677.818z"/>
		</g>
	</g>
	<g>
		<g>
			<path fill="#1B1B1B" d="M853.041,846.186c-2.018-1.964-3.328-3.359-5.706-5.751l-10.14-10.147
				c-11.201-11.176-24.474-24.3-37.211-36.81c-25.472-25.024-48.812-47.593-48.81-47.594c-0.003,0.003-23.293-22.615-49.118-47.273
				l-19.511-18.564l-18.312-17.276l-3.626-3.396c-2.464-2.303-3.898-3.568-5.925-5.526c2.02,1.964,3.328,3.36,5.706,5.751
				l3.508,3.521l17.831,17.771l19.158,18.931c25.441,25.055,48.767,47.638,48.764,47.64c0.002-0.002,23.276,22.632,49.073,47.32
				c12.896,12.347,26.423,25.208,37.938,36.06l10.456,9.822C849.58,842.961,851.018,844.229,853.041,846.186z"/>
		</g>
		<g>
			<path fill="#1B1B1B" d="M544.369,546.396c-2.021-1.964-3.328-3.36-5.707-5.75l-10.119-10.129
				c-11.17-11.145-24.404-24.232-37.107-36.709c-25.4-24.957-48.676-47.462-48.675-47.464c-0.002,0.003-23.229-22.552-48.982-47.144
				l-19.458-18.515l-18.263-17.229l-3.626-3.396c-2.463-2.303-3.898-3.569-5.924-5.526c2.019,1.964,3.327,3.361,5.705,5.751
				l3.507,3.521l17.783,17.724l19.104,18.878c25.371,24.985,48.632,47.506,48.629,47.508c0.001-0.001,23.212,22.571,48.938,47.192
				c12.861,12.312,26.352,25.137,37.834,35.959l10.436,9.802C540.907,543.173,542.344,544.439,544.369,546.396z"/>
		</g>
	</g>
	<g>
		<g>
			<path fill="#1B1B1B" d="M1012.152,735.984c-2.676-0.883-4.47-1.551-7.655-2.648l-16.176-5.55
				c-18.753-6.404-40.901-13.879-62.109-20.965c-42.413-14.184-81.062-26.819-81.06-26.823
				c-0.002,0.005-38.626-12.703-81.204-26.381l-32.129-10.271l-30.059-9.487l-4.743-1.481c-3.22-1.004-5.06-1.528-7.735-2.404
				c2.675,0.883,4.468,1.552,7.655,2.649l4.697,1.618l29.832,10.177l31.964,10.774c42.398,14.223,81.038,26.885,81.037,26.889
				c0.001-0.004,38.617,12.729,81.183,26.448c21.281,6.863,43.55,13.975,62.449,19.933l16.316,5.119
				C1007.635,734.584,1009.477,735.108,1012.152,735.984z"/>
		</g>
		<g>
			<path fill="#1B1B1B" d="M509.461,570.484c-2.675-0.881-4.468-1.551-7.655-2.649l-16.14-5.538
				c-18.703-6.388-40.792-13.842-61.942-20.91c-42.299-14.145-80.842-26.749-80.841-26.751c-0.001,0.004-38.521-12.67-80.985-26.311
				l-32.042-10.242l-29.979-9.461l-4.742-1.482c-3.219-1.004-5.059-1.527-7.736-2.403c2.674,0.882,4.468,1.55,7.655,2.648
				l4.698,1.619l29.752,10.15L261.38,489.9c42.285,14.186,80.82,26.812,80.818,26.816c0.001-0.002,38.514,12.695,80.964,26.378
				c21.224,6.845,43.433,13.937,62.281,19.878l16.281,5.107C504.944,569.084,506.784,569.609,509.461,570.484z"/>
		</g>
	</g>
	<g>
		<g>
			<path fill="#1B1B1B" d="M1168.798,596.401c-2.815,0.018-4.729-0.025-8.1-0.041l-21.682-0.062
				c-26.456-0.052-57.666-0.014-87.52,0.084c-59.708,0.193-113.994,0.649-113.993,0.646c-0.001,0.004-54.287,0.384-113.989,1.127
				l-45.028,0.612l-42.064,0.695l-4.968,0.094c-3.37,0.066-5.282,0.138-8.1,0.161c2.816-0.018,4.729,0.025,8.102,0.041l4.969,0.02
				l42.069,0.068l45.033-0.059c59.707-0.146,113.992-0.574,113.992-0.57c0-0.003,54.287-0.355,113.991-1.052
				c29.853-0.345,61.058-0.772,87.51-1.219l21.679-0.387C1164.07,596.495,1165.982,596.425,1168.798,596.401z"/>
		</g>
		<g>
			<path fill="#1B1B1B" d="M475.082,601.014c-2.816,0.019-4.729-0.024-8.102-0.041l-21.632-0.062
				c-26.386-0.053-57.513-0.017-87.289,0.083c-59.549,0.19-113.69,0.646-113.69,0.643c0,0.005-54.142,0.382-113.687,1.124
				l-44.911,0.611l-41.953,0.694l-4.968,0.093c-3.371,0.065-5.282,0.138-8.099,0.162c2.817-0.019,4.729,0.023,8.101,0.041
				l4.968,0.02l41.958,0.069l44.914-0.058c59.55-0.145,113.692-0.57,113.691-0.566c0-0.003,54.145-0.354,113.689-1.049
				c29.772-0.347,60.896-0.771,87.279-1.218l21.629-0.385C470.354,601.108,472.266,601.037,475.082,601.014z"/>
		</g>
	</g>
	<g>
		<g>
			<path fill="#1B1B1B" d="M863.904,1109.241c-1.297-2.501-2.128-4.224-3.646-7.233l-9.865-19.47
				c-12.074-23.778-26.407-51.782-40.175-78.542c-27.527-53.522-52.809-102.057-52.806-102.059
				c-0.004,0.003-25.215-48.565-53.232-101.834l-21.178-40.15l-19.893-37.451l-2.343-4.382c-1.59-2.974-2.521-4.645-3.822-7.143
				c1.296,2.501,2.127,4.224,3.646,7.234l2.241,4.435l19.215,37.803l20.686,40.408c27.486,53.543,52.741,102.089,52.737,102.091
				c0.003-0.002,25.19,48.58,53.167,101.87c13.985,26.646,28.664,54.471,41.184,78.018l10.263,19.265
				C861.671,1105.072,862.604,1106.744,863.904,1109.241z"/>
		</g>
		<g>
			<path fill="#1B1B1B" d="M542.088,488.748c-1.297-2.5-2.128-4.223-3.646-7.234l-9.844-19.427
				c-12.042-23.715-26.337-51.646-40.067-78.335c-27.455-53.381-52.668-101.787-52.666-101.788
				c-0.003,0.001-25.147-48.439-53.092-101.564l-21.123-40.046l-19.841-37.352l-2.341-4.382c-1.591-2.973-2.522-4.643-3.824-7.141
				c1.297,2.5,2.127,4.223,3.646,7.233l2.241,4.435l19.163,37.705l20.63,40.3c27.412,53.402,52.601,101.82,52.598,101.822
				c0.002-0.001,25.123,48.453,53.025,101.601c13.948,26.575,28.59,54.327,41.076,77.811l10.239,19.223
				C539.854,484.579,540.786,486.25,542.088,488.748z"/>
		</g>
	</g>
	<g>
		<g>
			<path fill="#1B1B1B" d="M997.201,721.634c-2.693-0.824-4.5-1.456-7.709-2.487l-15.688-5.017
				c-18.011-5.729-39.284-12.409-59.651-18.735c-40.735-12.66-77.851-23.916-77.851-23.918c-0.001,0.004-37.094-11.32-77.98-23.479
				l-30.854-9.123l-28.863-8.417l-4.773-1.376c-3.241-0.933-5.093-1.415-7.788-2.232c2.693,0.824,4.499,1.457,7.71,2.489l4.73,1.521
				l28.654,9.104l30.699,9.626c40.721,12.702,77.829,23.98,77.828,23.984c0-0.003,37.087,11.345,77.962,23.544
				c20.437,6.104,41.82,12.419,59.969,17.703l15.819,4.581C992.653,720.334,994.506,720.816,997.201,721.634z"/>
		</g>
		<g>
			<path fill="#1B1B1B" d="M512.732,573.635c-2.693-0.824-4.5-1.456-7.708-2.488l-15.654-5.006
				c-17.963-5.715-39.179-12.376-59.492-18.686c-40.624-12.627-77.639-23.852-77.638-23.854
				c-0.001,0.005-36.995-11.29-77.771-23.415l-30.769-9.098l-28.787-8.394l-4.774-1.376c-3.241-0.934-5.093-1.414-7.788-2.231
				c2.693,0.823,4.499,1.458,7.709,2.489l4.73,1.519l28.578,9.081l30.616,9.602c40.611,12.668,77.618,23.917,77.617,23.92
				c0.001-0.003,36.988,11.313,77.753,23.479c20.381,6.087,41.707,12.386,59.807,17.654l15.786,4.571
				C508.185,572.336,510.037,572.818,512.732,573.635z"/>
		</g>
	</g>
	<g>
		<g>
			<path fill="#1B1B1B" d="M699.23,100.147c-0.552,2.761-0.985,4.625-1.685,7.923l-4.05,19.256
				c-4.819,23.053-10.414,50.266-15.702,76.31c-10.583,52.087-19.934,99.501-19.938,99.5c0.006,0.001-9.421,47.399-19.471,99.59
				l-7.531,39.375l-6.919,36.811l-0.903,4.885c-0.613,3.316-0.921,5.204-1.467,7.967c0.552-2.761,0.984-4.625,1.686-7.923
				l1.028-4.862l7.651-36.663l8.065-39.27c10.628-52.077,20.006-99.485,20.009-99.484c-0.003-0.001,9.448-47.394,19.544-99.579
				c5.051-26.09,10.266-53.379,14.607-76.527l3.605-19.343C698.376,104.799,698.686,102.911,699.23,100.147z"/>
		</g>
		<g>
			<path fill="#1B1B1B" d="M577.792,709.935c-0.551,2.764-0.985,4.626-1.685,7.925l-4.041,19.214
				c-4.809,22.991-10.389,50.132-15.663,76.105c-10.557,51.948-19.882,99.235-19.886,99.234c0.003,0.001-9.396,47.271-19.419,99.326
				l-7.511,39.271l-6.898,36.712l-0.905,4.886c-0.612,3.314-0.921,5.203-1.465,7.967c0.55-2.762,0.984-4.625,1.685-7.923
				l1.029-4.861l7.633-36.565l8.044-39.164c10.601-51.939,19.952-99.221,19.957-99.22c-0.003-0.001,9.424-47.268,19.492-99.312
				c5.038-26.022,10.237-53.238,14.567-76.324l3.6-19.302C576.938,714.587,577.248,712.698,577.792,709.935z"/>
		</g>
	</g>
	<g>
		<g>
			<path fill="#1B1B1B" d="M665.818,82.725c-0.358,2.793-0.661,4.683-1.129,8.021l-2.756,19.888
				c-3.284,23.909-7.065,52.126-10.619,79.125c-7.114,53.999-13.308,103.131-13.311,103.13c0.005,0.001-6.264,49.123-12.836,103.189
				l-4.908,40.785l-4.466,38.118l-0.565,4.937c-0.382,3.35-0.561,5.254-0.912,8.049c0.358-2.794,0.66-4.683,1.131-8.021l0.687-4.92
				l5.211-38.024l5.45-40.716c7.16-53.993,13.378-103.12,13.382-103.119c-0.002-0.001,6.292-49.12,12.911-103.181
				c3.312-27.03,6.709-55.296,9.51-79.267l2.308-19.945C665.287,87.423,665.467,85.519,665.818,82.725z"/>
		</g>
		<g>
			<path fill="#1B1B1B" d="M585.108,713.767c-0.359,2.794-0.661,4.684-1.13,8.021l-2.749,19.845
				c-3.276,23.845-7.049,51.986-10.594,78.914c-7.096,53.854-13.271,102.856-13.274,102.855
				c0.004,0.001-6.248,48.991-12.804,102.915l-4.894,40.677l-4.454,38.018l-0.564,4.937c-0.382,3.351-0.561,5.255-0.913,8.05
				c0.358-2.794,0.661-4.683,1.13-8.021l0.688-4.921l5.197-37.922l5.438-40.607c7.142-53.85,13.345-102.847,13.35-102.847
				c-0.004,0,6.273-48.987,12.876-102.905c3.303-26.958,6.689-55.148,9.482-79.057l2.302-19.9
				C584.577,718.466,584.756,716.561,585.108,713.767z"/>
		</g>
	</g>
	<g>
		<g>
			<path fill="#1B1B1B" d="M627.549,1163.586c-0.138-2.812-0.175-4.726-0.301-8.095l-0.847-21.49
				c-1.056-26.183-2.398-57.064-3.745-86.604c-2.69-59.077-5.418-112.779-5.414-112.778c-0.004,0-2.654-53.704-5.896-112.754
				l-2.495-44.534l-2.451-41.597l-0.306-4.958c-0.209-3.366-0.36-5.272-0.505-8.085c0.137,2.812,0.175,4.725,0.301,8.095l0.19,4.965
				l1.692,41.634l1.94,44.562c2.645,59.079,5.343,112.779,5.339,112.779c0.003,0.002,2.625,53.706,5.818,112.76
				c1.595,29.525,3.326,60.389,4.878,86.547l1.294,21.469C627.253,1158.866,627.406,1160.773,627.549,1163.586z"/>
		</g>
		<g>
			<path fill="#1B1B1B" d="M593.901,476.929c-0.138-2.813-0.176-4.727-0.303-8.095l-0.843-21.443
				c-1.051-26.113-2.391-56.915-3.734-86.375c-2.683-58.921-5.4-112.48-5.397-112.48c-0.004,0-2.646-53.562-5.878-112.455
				l-2.489-44.417l-2.447-41.485l-0.304-4.96c-0.209-3.364-0.363-5.271-0.505-8.084c0.137,2.813,0.174,4.726,0.3,8.095l0.189,4.965
				l1.687,41.523l1.937,44.445c2.635,58.922,5.326,112.482,5.322,112.482c0.003,0,2.619,53.563,5.805,112.46
				c1.589,29.448,3.316,60.229,4.864,86.318l1.292,21.419C593.606,472.208,593.758,474.115,593.901,476.929z"/>
		</g>
	</g>
	<g>
		<g>
			<path fill="#1B1B1B" d="M765.745,310.343c-1.402,2.443-2.435,4.057-4.162,6.951l-6.999,11.786
				c-7.586,12.821-16.463,27.988-24.902,42.525c-16.886,29.071-32.015,55.632-32.018,55.629
				c0.004,0.003-15.186,26.526-31.634,55.848l-12.366,22.138l-11.469,20.746l-2.388,4.358c-1.616,2.958-2.482,4.666-3.877,7.112
				c1.402-2.441,2.435-4.055,4.162-6.949l2.544-4.27l12.058-20.41l12.802-21.889c16.919-29.052,32.068-55.601,32.07-55.599
				c-0.002-0.001,15.208-26.517,31.688-55.817c8.245-14.649,16.81-29.994,24.007-43.037l6.604-12.012
				C763.484,314.498,764.354,312.791,765.745,310.343z"/>
		</g>
		<g>
			<path fill="#1B1B1B" d="M563.297,663.851c-1.402,2.442-2.434,4.057-4.163,6.95l-6.984,11.762
				c-7.565,12.786-16.419,27.909-24.835,42.407c-16.84,28.99-31.928,55.479-31.93,55.478c0.003,0.001-15.145,26.452-31.547,55.692
				l-12.332,22.076l-11.437,20.689l-2.388,4.357c-1.617,2.959-2.482,4.666-3.877,7.114c1.402-2.442,2.435-4.056,4.163-6.95
				l2.544-4.269l12.024-20.354l12.767-21.828c16.874-28.971,31.98-55.445,31.983-55.443c-0.002-0.002,15.166-26.443,31.603-55.664
				c8.222-14.608,16.762-29.911,23.939-42.918l6.591-11.988C561.036,668.006,561.904,666.298,563.297,663.851z"/>
		</g>
	</g>
	<g>
		<g>
			<path fill="#1B1B1B" d="M964.747,456.831c-2.623,1.03-4.433,1.652-7.589,2.837l-14.669,5.533
				c-16.602,6.291-36.154,13.79-54.835,21.022c-37.365,14.458-71.24,27.852-71.242,27.85c0.002,0.004-33.9,13.329-71.073,28.271
				l-28.021,11.315l-26.146,10.677l-4.594,1.895c-3.116,1.285-4.864,2.063-7.484,3.1c2.622-1.028,4.433-1.651,7.589-2.836
				l4.651-1.747l26.405-10.02l28.211-10.831c37.379-14.419,71.264-27.789,71.266-27.785c-0.002-0.003,33.91-13.308,71.101-28.209
				c18.596-7.448,38.012-15.296,54.443-22.016l14.502-5.956C960.378,458.644,962.127,457.867,964.747,456.831z"/>
		</g>
		<g>
			<path fill="#1B1B1B" d="M519.744,631.675c-2.622,1.029-4.434,1.652-7.588,2.837l-14.639,5.521
				c-16.556,6.271-36.057,13.75-54.688,20.964c-37.263,14.418-71.047,27.773-71.048,27.771c0.001,0.004-33.81,13.293-70.881,28.194
				l-27.944,11.284l-26.075,10.647l-4.594,1.896c-3.117,1.287-4.865,2.063-7.484,3.101c2.622-1.027,4.432-1.65,7.589-2.835
				l4.651-1.747l26.335-9.991l28.133-10.802c37.279-14.378,71.071-27.712,71.073-27.708c-0.001-0.003,33.818-13.27,70.906-28.133
				c18.546-7.427,37.909-15.255,54.297-21.956l14.471-5.942C515.376,633.488,517.125,632.71,519.744,631.675z"/>
		</g>
	</g>
	<g>
		<g>
			<path fill="#1B1B1B" d="M634.849,1112.948c-0.19-2.812-0.26-4.724-0.446-8.089l-1.138-19.772
				c-1.389-23.696-3.12-51.646-4.841-78.375c-3.435-53.462-6.835-102.05-6.832-102.051c-0.004,0-3.328-48.594-7.306-102.017
				l-3.05-40.29l-2.97-37.634l-0.403-4.951c-0.275-3.36-0.472-5.265-0.667-8.073c0.189,2.811,0.258,4.722,0.444,8.089l0.279,4.96
				l2.222,37.685l2.507,40.327c3.389,53.464,6.763,102.056,6.758,102.056c0.004,0,3.302,48.597,7.231,102.021
				c1.963,26.715,4.082,54.636,5.956,78.299l1.587,19.742C634.458,1108.235,634.652,1110.139,634.849,1112.948z"/>
		</g>
		<g>
			<path fill="#1B1B1B" d="M592.283,488.021c-0.19-2.811-0.259-4.723-0.447-8.089l-1.133-19.729
				c-1.384-23.634-3.111-51.507-4.827-78.167c-3.424-53.319-6.815-101.779-6.812-101.779c-0.005,0-3.319-48.464-7.286-101.746
				l-3.042-40.182l-2.961-37.534l-0.404-4.951c-0.275-3.361-0.471-5.265-0.667-8.074c0.189,2.81,0.258,4.722,0.446,8.088
				l0.277,4.961l2.215,37.584l2.499,40.22c3.38,53.321,6.742,101.783,6.738,101.783c0.004,0,3.292,48.467,7.213,101.751
				c1.957,26.643,4.07,54.491,5.941,78.09l1.583,19.699C591.892,483.308,592.086,485.212,592.283,488.021z"/>
		</g>
	</g>
	<g>
		<g>
			<path fill="#1B1B1B" d="M782.824,352.856c-1.68,2.262-2.896,3.739-4.955,6.41l-7.797,10.169
				c-8.258,10.81-17.936,23.609-27.145,35.888c-18.424,24.554-34.973,47.027-34.975,47.026c0.003,0.002-16.602,22.436-34.627,47.281
				l-13.562,18.768l-12.597,17.606l-2.875,4.052c-1.947,2.753-3.002,4.352-4.67,6.62c1.678-2.262,2.896-3.739,4.955-6.409
				l3.029-3.938l13.13-17.213l13.954-18.476c18.455-24.53,35.021-46.991,35.022-46.989c-0.002-0.001,16.619-22.423,34.676-47.248
				c9.031-12.41,18.425-25.42,26.331-36.488l7.432-10.441C780.101,356.723,781.156,355.125,782.824,352.856z"/>
		</g>
		<g>
			<path fill="#1B1B1B" d="M559.571,654.528c-1.68,2.262-2.897,3.738-4.956,6.409l-7.782,10.148
				c-8.235,10.779-17.885,23.542-27.069,35.786c-18.374,24.484-34.876,46.896-34.878,46.895c0.003,0.003-16.555,22.373-34.529,47.15
				l-13.522,18.715l-12.561,17.56l-2.875,4.052c-1.948,2.754-3.002,4.353-4.67,6.621c1.678-2.263,2.896-3.739,4.955-6.409
				l3.029-3.938l13.094-17.165l13.916-18.424c18.404-24.462,34.924-46.859,34.927-46.857c-0.003-0.002,16.572-22.36,34.579-47.115
				c9.008-12.375,18.372-25.35,26.257-36.387l7.416-10.42C556.847,658.395,557.901,656.797,559.571,654.528z"/>
		</g>
	</g>
	<g>
		<g>
			<path fill="#1B1B1B" d="M556.338,197.811c0.3,2.801,0.426,4.71,0.736,8.067l1.511,16.039c1.75,18.295,3.898,39.867,6.019,60.497
				c4.23,41.259,8.343,78.746,8.341,78.745c0.003,0,4.043,37.493,8.794,78.694l3.631,31.071l3.505,29.026l0.611,4.93
				c0.416,3.347,0.703,5.238,1.01,8.038c-0.301-2.8-0.425-4.71-0.736-8.067l-0.459-4.946l-2.796-29.103l-3.111-31.128
				c-4.188-41.263-8.275-78.751-8.271-78.751c-0.003,0-4.018-37.497-8.727-78.704c-2.351-20.605-4.875-42.136-7.086-60.382
				l-1.962-15.989C556.931,202.503,556.645,200.611,556.338,197.811z"/>
		</g>
		<g>
			<path fill="#1B1B1B" d="M609.143,688.589c0.301,2.801,0.427,4.71,0.736,8.067l1.506,16.004
				c1.745,18.245,3.888,39.76,6.001,60.333c4.218,41.147,8.319,78.532,8.316,78.532c0.004,0,4.032,37.392,8.771,78.481l3.622,30.986
				l3.496,28.947l0.611,4.931c0.416,3.346,0.703,5.238,1.01,8.037c-0.3-2.8-0.425-4.71-0.735-8.067l-0.46-4.946l-2.786-29.023
				l-3.103-31.043c-4.176-41.151-8.253-78.538-8.249-78.539c-0.003,0.001-4.007-37.395-8.704-78.489
				c-2.343-20.549-4.859-42.021-7.065-60.218l-1.958-15.956C609.736,693.281,609.449,691.389,609.143,688.589z"/>
		</g>
	</g>
	<g>
		<g>
			<path fill="#1B1B1B" d="M760.934,243.22c-1.159,2.566-2.021,4.276-3.455,7.327l-6.644,14.187
				c-7.496,16.073-16.264,35.069-24.59,53.266c-16.662,36.392-31.57,69.589-31.573,69.588c0.004,0.001-14.97,33.168-31.157,69.773
				l-12.165,27.628l-11.27,25.866l-1.969,4.561c-1.336,3.096-2.045,4.875-3.199,7.444c1.161-2.567,2.021-4.275,3.458-7.326
				l2.113-4.498l11.913-25.575l12.64-27.415c16.701-36.373,31.63-69.56,31.634-69.559c-0.003-0.001,14.992-33.159,31.219-69.747
				c8.118-18.292,16.541-37.441,23.617-53.705l6.229-14.374C759.07,247.567,759.78,245.789,760.934,243.22z"/>
		</g>
		<g>
			<path fill="#1B1B1B" d="M564.326,678.562c-1.16,2.565-2.021,4.274-3.457,7.325l-6.629,14.156
				c-7.477,16.03-16.221,34.974-24.525,53.122c-16.618,36.292-31.484,69.398-31.488,69.396c0.004,0.003-14.929,33.078-31.072,69.584
				L455.021,919.7l-11.237,25.796l-1.969,4.562c-1.335,3.097-2.044,4.873-3.198,7.442c1.16-2.564,2.021-4.275,3.458-7.326
				l2.112-4.496l11.883-25.506l12.605-27.34c16.656-36.273,31.545-69.371,31.549-69.369c-0.003-0.001,14.952-33.067,31.135-69.558
				c8.095-18.242,16.496-37.34,23.553-53.56l6.215-14.344C562.462,682.908,563.172,681.131,564.326,678.562z"/>
		</g>
	</g>
	<g>
		<g>
			<path fill="#1B1B1B" d="M622.463,295.51c-0.214,2.808-0.457,4.708-0.773,8.065l-1.167,12.689
				c-1.212,13.441-2.562,29.306-3.794,44.485c-2.475,30.359-4.471,57.979-4.474,57.979c0.003,0.001-2.062,27.616-4.042,58.01
				l-1.45,22.928l-1.254,21.444l-0.271,4.962c-0.18,3.368-0.217,5.281-0.419,8.091c0.214-2.808,0.457-4.707,0.774-8.065l0.462-4.946
				l1.914-21.396l1.938-22.891c2.511-30.354,4.526-57.974,4.531-57.974c-0.003,0,2.084-27.615,4.104-58.007
				c1.013-15.196,2.01-31.085,2.788-44.56l0.712-12.722C622.222,300.234,622.262,298.318,622.463,295.51z"/>
		</g>
		<g>
			<path fill="#1B1B1B" d="M594.689,667.154c-0.214,2.809-0.457,4.708-0.774,8.063l-1.165,12.663
				c-1.209,13.405-2.556,29.226-3.786,44.361c-2.466,30.273-4.458,57.818-4.461,57.816c0.004,0.002-2.056,27.539-4.03,57.851
				l-1.445,22.863l-1.25,21.385l-0.271,4.962c-0.179,3.367-0.216,5.281-0.418,8.091c0.213-2.809,0.458-4.708,0.775-8.063
				l0.463-4.947l1.909-21.336l1.933-22.828c2.504-30.271,4.518-57.812,4.521-57.812c-0.002,0,2.078-27.538,4.091-57.846
				c1.01-15.152,2.004-30.998,2.78-44.436l0.71-12.696C594.449,671.878,594.488,669.964,594.689,667.154z"/>
		</g>
	</g>
	<g>
		<g>
			<path fill="#1B1B1B" d="M915.863,304.813c-2.06,1.923-3.508,3.174-6.002,5.44l-12.604,11.487
				c-14.578,13.323-31.718,29.103-48.067,44.244c-32.705,30.277-62.258,58.004-62.26,58.001c0.002,0.003-29.6,27.675-61.942,58.339
				l-24.36,23.164l-22.688,21.729l-3.577,3.448c-2.427,2.339-3.771,3.702-5.825,5.629c2.059-1.922,3.507-3.173,6.003-5.44
				l3.676-3.343l23.183-21.199l24.723-22.775c32.734-30.245,62.305-57.952,62.308-57.951c-0.003-0.002,29.617-27.656,61.99-58.288
				c16.19-15.313,33.068-31.371,47.325-45.037l12.296-11.818C912.465,308.103,913.809,306.741,915.863,304.813z"/>
		</g>
		<g>
			<path fill="#1B1B1B" d="M530.399,665.005c-2.06,1.923-3.508,3.174-6.003,5.44l-12.577,11.463
				c-14.54,13.286-31.632,29.021-47.939,44.123c-32.618,30.194-62.091,57.847-62.093,57.845
				c0.003,0.003-29.521,27.601-61.776,58.183l-24.295,23.102l-22.626,21.67l-3.577,3.447c-2.428,2.341-3.772,3.703-5.825,5.63
				c2.058-1.922,3.506-3.173,6.002-5.44l3.677-3.342l23.12-21.142l24.657-22.716c32.647-30.162,62.137-57.796,62.141-57.793
				c-0.002-0.002,29.539-27.582,61.824-58.133c16.146-15.271,32.979-31.286,47.196-44.915l12.27-11.794
				C527,668.295,528.344,666.933,530.399,665.005z"/>
		</g>
	</g>
	<g>
		<g>
			<path fill="#1B1B1B" d="M1134.709,751.715c-2.709-0.769-4.534-1.344-7.767-2.3l-20.375-5.987
				c-24.771-7.254-54.021-15.716-82.018-23.75c-55.991-16.073-106.976-30.418-106.975-30.422
				c-0.001,0.004-50.965-14.414-107.105-29.958l-42.355-11.675l-39.602-10.79l-4.797-1.294c-3.256-0.876-5.111-1.339-7.823-2.102
				c2.709,0.768,4.533,1.344,7.769,2.301l4.765,1.405l39.396,11.521l42.207,12.207c55.978,16.118,106.954,30.489,106.953,30.493
				c0.002-0.004,50.958,14.439,107.086,30.031c28.062,7.798,57.417,15.886,82.323,22.66l20.496,5.556
				C1130.142,750.488,1131.998,750.952,1134.709,751.715z"/>
		</g>
		<g>
			<path fill="#1B1B1B" d="M482.61,566.992c-2.709-0.77-4.534-1.344-7.767-2.3l-20.329-5.976
				c-24.706-7.234-53.878-15.675-81.8-23.688c-55.842-16.032-106.693-30.339-106.692-30.343
				c-0.001,0.005-50.83-14.376-106.821-29.88l-42.244-11.644l-39.497-10.76l-4.797-1.294c-3.256-0.876-5.112-1.341-7.823-2.103
				c2.709,0.77,4.534,1.344,7.767,2.301l4.766,1.406l39.291,11.491l42.094,12.176c55.83,16.077,106.671,30.41,106.67,30.414
				c0-0.002,50.823,14.404,106.802,29.953c27.988,7.776,57.267,15.843,82.105,22.601l20.451,5.542
				C478.043,565.766,479.899,566.23,482.61,566.992z"/>
		</g>
	</g>
	<g>
		<g>
			<path fill="#1B1B1B" d="M857.207,926.413c-1.744-2.212-2.867-3.761-4.918-6.438l-10.031-13.059
				c-11.533-14.969-25.206-32.574-38.337-49.376c-26.254-33.608-50.335-63.998-50.333-64c-0.002,0.002-24.026-30.435-50.693-63.716
				l-20.149-25.071l-18.919-23.358l-3.141-3.853c-2.131-2.613-3.379-4.062-5.127-6.271c1.743,2.212,2.866,3.762,4.916,6.438
				l3.022,3.944l18.355,23.804l19.738,25.398c26.219,33.634,50.281,64.039,50.277,64.042c0.003-0.001,24.007,30.449,50.641,63.759
				c13.312,16.656,27.283,34.026,39.183,48.707l10.389,12.777C854.211,922.754,855.459,924.205,857.207,926.413z"/>
		</g>
		<g>
			<path fill="#1B1B1B" d="M543.486,528.814c-1.744-2.213-2.869-3.762-4.917-6.438l-10.009-13.03
				c-11.503-14.929-25.139-32.487-38.232-49.245c-26.182-33.518-50.198-63.826-50.196-63.828
				c-0.003,0.002-23.961-30.351-50.556-63.542l-20.096-25.004l-18.869-23.296l-3.139-3.852c-2.132-2.613-3.38-4.064-5.128-6.271
				c1.743,2.211,2.867,3.761,4.916,6.438l3.023,3.944l18.305,23.741l19.685,25.33c26.147,33.544,50.145,63.868,50.142,63.87
				c0.002-0.001,23.942,30.368,50.503,63.586c13.277,16.612,27.21,33.937,39.078,48.576l10.366,12.75
				C540.489,525.155,541.737,526.607,543.486,528.814z"/>
		</g>
	</g>
	<g>
		<g>
			<path fill="#1B1B1B" d="M1120.812,433.003c-2.684,0.86-4.521,1.39-7.742,2.382l-20.003,6.2
				c-24.239,7.539-52.805,16.525-80.108,25.182c-54.612,17.309-104.181,33.312-104.182,33.308
				c0.002,0.004-49.592,15.935-104.034,33.764l-41.047,13.496l-38.31,12.723l-4.711,1.578c-3.195,1.073-4.998,1.715-7.679,2.581
				c2.683-0.859,4.521-1.389,7.742-2.381l4.748-1.466l38.54-12.001l41.216-12.972c54.627-17.264,104.202-33.239,104.203-33.236
				c0-0.003,49.601-15.907,104.059-33.692c27.229-8.891,55.675-18.246,79.763-26.256l19.865-6.628
				C1116.33,434.51,1118.132,433.869,1120.812,433.003z"/>
		</g>
		<g>
			<path fill="#1B1B1B" d="M485.536,636.838c-2.683,0.86-4.521,1.391-7.743,2.382l-19.958,6.186
				c-24.175,7.519-52.665,16.479-79.897,25.112c-54.467,17.262-103.905,33.223-103.905,33.219c0,0.004-49.459,15.892-103.759,33.673
				l-40.938,13.461L91.128,763.56l-4.711,1.578c-3.197,1.073-4.999,1.716-7.679,2.58c2.682-0.858,4.52-1.388,7.743-2.381
				l4.747-1.465l38.439-11.97l41.107-12.938c54.481-17.215,103.927-33.148,103.927-33.145
				c-0.001-0.004,49.469-15.865,103.783-33.604c27.156-8.866,55.527-18.198,79.551-26.187l19.82-6.613
				C481.053,638.346,482.855,637.703,485.536,636.838z"/>
		</g>
	</g>
	<g>
		<g>
			<path fill="#1B1B1B" d="M745.104,60.851c-0.733,2.719-1.285,4.551-2.2,7.795l-5.755,20.541
				c-6.978,24.994-15.111,54.505-22.833,82.751c-15.447,56.49-29.223,107.925-29.226,107.924
				c0.004,0.001-13.845,51.417-28.761,108.048l-11.2,42.727l-10.346,39.947l-1.234,4.812c-0.835,3.267-1.274,5.128-2.003,7.849
				c0.733-2.719,1.286-4.551,2.201-7.795l1.346-4.783l11.08-39.748l11.735-42.584C673.4,331.858,687.2,280.43,687.205,280.431
				c-0.003-0.001,13.871-51.409,28.833-108.03c7.483-28.31,15.243-57.922,21.74-83.045L743.1,68.7
				C743.935,65.433,744.375,63.572,745.104,60.851z"/>
		</g>
		<g>
			<path fill="#1B1B1B" d="M567.726,718.53c-0.733,2.719-1.285,4.55-2.2,7.795l-5.743,20.495
				c-6.959,24.928-15.074,54.358-22.775,82.529c-15.407,56.342-29.146,107.641-29.148,107.64
				c0.004,0.001-13.809,51.279-28.686,107.763l-11.171,42.614l-10.316,39.841l-1.233,4.812c-0.835,3.268-1.276,5.13-2.004,7.851
				c0.733-2.719,1.287-4.551,2.202-7.796l1.346-4.782l11.053-39.645l11.705-42.472c15.453-56.327,29.217-107.618,29.223-107.617
				c-0.005-0.001,13.835-51.272,28.757-107.744c7.463-28.233,15.203-57.769,21.682-82.825l5.31-20.61
				C566.557,723.112,566.998,721.251,567.726,718.53z"/>
		</g>
	</g>
	<g>
		<g>
			<path fill="#1B1B1B" d="M737.466,901.142c-1.168-2.562-1.879-4.341-3.225-7.432l-5.456-12.451
				c-5.938-13.482-13.014-29.354-19.839-44.514c-13.644-30.319-26.28-57.779-26.277-57.78c-0.004,0.001-12.578-27.486-26.677-57.597
				l-10.676-22.69l-10.075-21.169l-2.152-4.478c-1.464-3.038-2.348-4.736-3.524-7.295c1.168,2.562,1.878,4.341,3.224,7.434
				l1.987,4.555l9.46,21.448l10.222,22.899c13.607,30.335,26.225,57.804,26.221,57.806c0.003-0.001,12.558,27.497,26.62,57.622
				c7.028,15.065,14.435,30.787,20.773,44.087l5.871,12.261C735.404,896.885,736.287,898.584,737.466,901.142z"/>
		</g>
		<g>
			<path fill="#1B1B1B" d="M569.716,534.398c-1.169-2.563-1.878-4.342-3.225-7.434l-5.445-12.426
				c-5.919-13.447-12.976-29.275-19.782-44.391c-13.604-30.236-26.207-57.621-26.203-57.624
				c-0.004,0.002-12.543-27.412-26.604-57.437l-10.646-22.628l-10.047-21.11l-2.151-4.479c-1.465-3.037-2.349-4.736-3.527-7.293
				c1.169,2.562,1.878,4.34,3.224,7.433l1.988,4.553l9.434,21.392l10.191,22.836c13.568,30.251,26.151,57.645,26.147,57.646
				c0.002-0.001,12.521,27.422,26.546,57.464c7.009,15.022,14.393,30.702,20.716,43.964l5.859,12.235
				C567.654,530.141,568.538,531.839,569.716,534.398z"/>
		</g>
	</g>
	<g>
		<g>
			<path fill="#1B1B1B" d="M736.06,906.533c-1.142-2.575-1.835-4.359-3.147-7.465l-5.386-12.643
				c-5.88-13.741-12.893-29.916-19.655-45.365c-13.52-30.9-26.045-58.892-26.042-58.894c-0.004,0.002-12.467-28.018-26.445-58.713
				l-10.585-23.133l-9.991-21.582l-2.104-4.502c-1.434-3.054-2.297-4.762-3.448-7.331c1.143,2.574,1.834,4.358,3.147,7.465
				l1.94,4.574l9.37,21.857l10.127,23.337c13.483,30.917,25.989,58.917,25.985,58.919c0.003-0.002,12.444,28.027,26.389,58.739
				c6.968,15.357,14.31,31.387,20.597,44.945l5.803,12.456C734.044,902.255,734.908,903.963,736.06,906.533z"/>
		</g>
		<g>
			<path fill="#1B1B1B" d="M570.026,533.217c-1.143-2.576-1.834-4.359-3.148-7.465l-5.374-12.616
				c-5.863-13.703-12.855-29.834-19.599-45.242c-13.481-30.814-25.974-58.729-25.972-58.73
				c-0.003,0.001-12.431-27.941-26.372-58.552l-10.556-23.069l-9.963-21.522l-2.105-4.501c-1.432-3.053-2.296-4.761-3.447-7.331
				c1.142,2.575,1.834,4.359,3.146,7.465l1.941,4.574l9.344,21.799l10.098,23.273c13.444,30.832,25.916,58.754,25.913,58.756
				c0.002-0.001,12.41,27.951,26.315,58.578c6.949,15.315,14.271,31.299,20.541,44.821l5.79,12.431
				C568.01,528.938,568.875,530.646,570.026,533.217z"/>
		</g>
	</g>
	<g>
		<g>
			<path fill="#1B1B1B" d="M1000.629,774.279c-2.584-1.122-4.309-1.951-7.382-3.337l-15.688-7.045
				c-18.217-8.149-39.74-17.686-60.355-26.745c-41.229-18.129-78.821-34.364-78.82-34.366c-0.002,0.003-37.564-16.299-79.004-33.94
				l-31.273-13.261l-29.269-12.287l-4.588-1.909c-3.113-1.295-4.897-1.985-7.482-3.104c2.583,1.123,4.309,1.952,7.382,3.339
				l4.529,2.04l28.979,12.954l31.062,13.748c41.211,18.169,78.794,34.426,78.792,34.429c0.001-0.002,37.556,16.324,78.978,34.007
				c20.709,8.845,42.386,18.028,60.789,25.745l15.869,6.629C996.258,772.471,998.043,773.162,1000.629,774.279z"/>
		</g>
		<g>
			<path fill="#1B1B1B" d="M512,562.097c-2.583-1.123-4.308-1.952-7.381-3.338l-15.654-7.03
				c-18.167-8.129-39.633-17.638-60.193-26.675c-41.116-18.081-78.608-34.271-78.606-34.274
				c-0.002,0.003-37.464-16.255-78.791-33.851l-31.19-13.225l-29.19-12.253l-4.587-1.91c-3.114-1.294-4.898-1.985-7.484-3.102
				c2.583,1.121,4.307,1.951,7.381,3.339l4.53,2.04l28.902,12.919l30.979,13.712c41.1,18.122,78.58,34.335,78.579,34.339
				c0.001-0.003,37.454,16.279,78.765,33.914c20.653,8.821,42.271,17.979,60.625,25.676l15.834,6.615
				C507.63,560.288,509.415,560.98,512,562.097z"/>
		</g>
	</g>
	<g>
		<g>
			<path fill="#1B1B1B" d="M950.487,722.214c-2.659-0.928-4.438-1.636-7.604-2.796l-14.064-5.119
				c-15.727-5.695-34.304-12.337-52.095-18.63c-35.579-12.593-68.017-23.794-68.016-23.798
				c-0.002,0.005-32.414-11.266-68.163-23.371l-26.978-9.088l-25.25-8.391l-4.722-1.55c-3.204-1.051-5.04-1.595-7.702-2.514
				c2.66,0.927,4.438,1.636,7.604,2.795l4.667,1.707l25.021,9.049l26.811,9.572c35.564,12.632,67.994,23.856,67.993,23.859
				c0.001-0.003,32.405,11.288,68.142,23.435c17.866,6.077,36.565,12.367,52.438,17.633l14.215,4.69
				C945.989,720.749,947.825,721.294,950.487,722.214z"/>
		</g>
		<g>
			<path fill="#1B1B1B" d="M522.969,573.525c-2.66-0.929-4.438-1.637-7.604-2.795l-14.035-5.11
				c-15.682-5.681-34.208-12.305-51.951-18.58c-35.482-12.56-67.831-23.731-67.83-23.734c-0.001,0.003-32.325-11.234-67.976-23.309
				l-26.904-9.062l-25.182-8.367l-4.721-1.551c-3.204-1.05-5.039-1.594-7.701-2.514c2.66,0.927,4.438,1.636,7.604,2.796l4.666,1.707
				l24.954,9.025l26.736,9.547c35.469,12.598,67.809,23.792,67.808,23.795c0.001-0.003,32.317,11.259,67.956,23.371
				c17.816,6.061,36.465,12.333,52.295,17.584l14.185,4.68C518.471,572.062,520.306,572.605,522.969,573.525z"/>
		</g>
	</g>
	<g>
		<g>
			<path fill="#1B1B1B" d="M880.857,111.058c-1.404,2.441-2.405,4.072-4.118,6.975l-10.904,18.553
				c-13.267,22.619-28.83,49.353-43.663,74.956c-29.672,51.205-56.407,97.902-56.41,97.901c0.004,0.001-26.797,46.66-55.991,98.138
				l-21.974,38.852l-20.423,36.356l-2.423,4.337c-1.643,2.944-2.544,4.632-3.942,7.076c1.404-2.441,2.405-4.071,4.12-6.977
				l2.521-4.279l21.082-35.978l22.454-38.577c29.712-51.181,56.471-97.863,56.475-97.861c-0.002-0.002,26.822-46.647,56.058-98.103
				c14.62-25.727,29.848-52.654,42.682-75.521l10.515-18.775C878.557,115.189,879.458,113.503,880.857,111.058z"/>
		</g>
		<g>
			<path fill="#1B1B1B" d="M537.997,707.477c-1.405,2.441-2.406,4.071-4.12,6.976l-10.88,18.511
				c-13.231,22.561-28.755,49.222-43.55,74.757c-29.594,51.069-56.26,97.644-56.262,97.642c0.004,0.002-26.728,46.535-55.845,97.879
				l-21.916,38.749l-20.367,36.26l-2.423,4.337c-1.642,2.945-2.543,4.633-3.941,7.076c1.403-2.441,2.405-4.071,4.12-6.975
				l2.521-4.28l21.028-35.881l22.396-38.474c29.636-51.046,56.323-97.604,56.326-97.603c-0.002-0.002,26.752-46.523,55.91-97.843
				c14.581-25.657,29.767-52.514,42.565-75.32l10.492-18.734C535.695,711.607,536.598,709.921,537.997,707.477z"/>
		</g>
	</g>
	<g>
		<g>
			<path fill="#1B1B1B" d="M624.097,278.276c-0.216,2.809-0.456,4.708-0.773,8.064l-1.226,13.274
				c-1.292,14.29-2.736,31.154-4.06,47.291c-2.652,32.272-4.81,61.634-4.812,61.634c0.005,0-2.223,29.355-4.376,61.666
				l-1.578,24.372l-1.373,22.792l-0.28,4.961c-0.187,3.367-0.231,5.282-0.438,8.09c0.218-2.809,0.457-4.708,0.775-8.064l0.464-4.947
				l2.042-22.742l2.075-24.334c2.689-32.27,4.87-61.629,4.873-61.629c-0.003,0.001,2.245-29.354,4.438-61.662
				c1.101-16.153,2.188-33.043,3.04-47.366l0.771-13.308C623.845,283,623.892,281.086,624.097,278.276z"/>
		</g>
		<g>
			<path fill="#1B1B1B" d="M594.325,670.93c-0.216,2.81-0.456,4.708-0.775,8.064l-1.222,13.246
				c-1.291,14.251-2.732,31.067-4.051,47.16c-2.646,32.183-4.797,61.463-4.8,61.463c0.003,0-2.217,29.274-4.364,61.495
				l-1.575,24.304l-1.368,22.729l-0.281,4.961c-0.185,3.367-0.229,5.281-0.436,8.091c0.217-2.81,0.457-4.708,0.775-8.064
				l0.464-4.947l2.039-22.68l2.069-24.268c2.685-32.18,4.857-61.458,4.86-61.457c-0.002-0.001,2.24-29.274,4.426-61.492
				c1.097-16.107,2.181-32.951,3.032-47.235l0.767-13.28C594.073,675.653,594.119,673.739,594.325,670.93z"/>
		</g>
	</g>
	<g>
		<g>
			<path fill="#1B1B1B" d="M679.419,73.654c-0.423,2.785-0.768,4.666-1.312,7.993l-3.27,20.184
				c-3.919,24.355-8.447,53.099-12.716,80.606c-8.544,55.012-16.036,105.072-16.039,105.071
				c0.004,0.001-7.562,50.049-15.566,105.143l-5.985,41.56l-5.474,38.844l-0.681,4.921c-0.46,3.342-0.684,5.24-1.102,8.026
				c0.423-2.784,0.769-4.666,1.312-7.993l0.801-4.903l6.219-38.731l6.528-41.479c8.589-55.004,16.107-105.059,16.111-105.059
				c-0.002-0.001,7.592-50.045,15.641-105.132c4.028-27.543,8.172-56.346,11.605-80.773l2.824-20.252
				C678.777,78.338,679.002,76.438,679.419,73.654z"/>
		</g>
		<g>
			<path fill="#1B1B1B" d="M582.125,715.749c-0.423,2.784-0.768,4.667-1.312,7.993l-3.264,20.14
				c-3.909,24.29-8.425,52.958-12.684,80.393c-8.522,54.865-15.995,104.793-15.999,104.793c0.005,0-7.543,49.916-15.525,104.861
				l-5.97,41.45l-5.457,38.74l-0.681,4.922c-0.46,3.341-0.686,5.24-1.103,8.025c0.423-2.783,0.77-4.666,1.313-7.993l0.8-4.903
				l6.203-38.629l6.513-41.368c8.568-54.858,16.067-104.781,16.071-104.78c-0.003-0.001,7.57-49.912,15.599-104.854
				c4.017-27.469,8.149-56.195,11.574-80.56l2.817-20.207C581.482,720.435,581.708,718.534,582.125,715.749z"/>
		</g>
	</g>
	<g>
		<g>
			<path fill="#1B1B1B" d="M633.483,232.382c-0.261,2.804-0.521,4.7-0.884,8.052l-1.578,14.825
				c-1.735,16.547-3.701,36.075-5.52,54.761c-3.643,37.371-6.692,71.373-6.695,71.373c0.004,0-3.116,33.995-6.247,71.413
				l-2.313,28.226l-2.055,26.392l-0.368,4.954c-0.248,3.363-0.334,5.276-0.586,8.081c0.26-2.805,0.521-4.701,0.885-8.053l0.533-4.94
				l2.748-26.328l2.825-28.179c3.684-37.367,6.758-71.366,6.761-71.367c-0.003,0.001,3.143-33.993,6.312-71.407
				c1.59-18.706,3.187-38.268,4.47-54.855l1.125-14.866C633.146,237.099,633.232,235.188,633.483,232.382z"/>
		</g>
		<g>
			<path fill="#1B1B1B" d="M592.25,680.983c-0.26,2.805-0.52,4.7-0.884,8.053l-1.576,14.794
				c-1.732,16.502-3.693,35.976-5.505,54.609c-3.633,37.27-6.675,71.179-6.677,71.179c0.003,0-3.11,33.902-6.23,71.218
				l-2.308,28.146l-2.048,26.319l-0.368,4.955c-0.248,3.363-0.333,5.275-0.585,8.08c0.26-2.805,0.521-4.701,0.885-8.053l0.534-4.94
				l2.742-26.255l2.817-28.103c3.674-37.265,6.739-71.172,6.743-71.172c-0.002,0,3.134-33.899,6.296-71.212
				c1.586-18.654,3.177-38.163,4.456-54.706l1.123-14.835C591.913,685.701,591.999,683.789,592.25,680.983z"/>
		</g>
	</g>
</g>
</svg>
