<?xml version="1.0" encoding="utf-8"?>
<!-- Generator: Adobe Illustrator 16.0.4, SVG Export Plug-In . SVG Version: 6.00 Build 0)  -->
<!DOCTYPE svg PUBLIC "-//W3C//DTD SVG 1.1//EN" "http://www.w3.org/Graphics/SVG/1.1/DTD/svg11.dtd">
<svg version="1.1" id="レイヤー_1" xmlns="http://www.w3.org/2000/svg" xmlns:xlink="http://www.w3.org/1999/xlink" x="0px"
	 y="0px" width="305.325px" height="95.26px" viewBox="0 0 305.325 95.26" enable-background="new 0 0 305.325 95.26"
	 xml:space="preserve">
<g>
	<path fill="#000000" d="M149.868,38.283c-0.343,0.925-1.427,1.688-2.416,1.688h-62.62c-0.988,0-1.521-0.763-1.185-1.688
		l11.869-32.61c0.336-0.929,1.419-1.686,2.409-1.686h11.957c0.987,0,2.479-0.438,3.312-0.965l3.236-2.055
		C117.263,0.434,118.754,0,119.741,0h8.739c0.986,0,1.115,0.439,0.284,0.975l-3.165,2.035c-0.832,0.534-0.702,0.977,0.285,0.977
		h34.737c0.985,0,1.519,0.757,1.177,1.686L149.868,38.283z M141.186,17.611c0.987,0,2.073-0.76,2.414-1.688l0.668-1.83
		c0.339-0.929-0.19-1.687-1.178-1.687h-34.075c-0.987,0-2.071,0.761-2.411,1.688l-0.667,1.828c-0.337,0.928,0.194,1.687,1.183,1.687
		L141.186,17.611L141.186,17.611z M136.191,31.363c0.987,0,2.073-0.762,2.409-1.689l0.62-1.705c0.336-0.931-0.194-1.689-1.184-1.689
		h-34.07c-0.988,0-2.074,0.76-2.41,1.689l-0.62,1.705c-0.338,0.928,0.194,1.689,1.182,1.689H136.191z"/>
	<g>
		<g>
			<path fill="#000000" d="M229.615,38.344c0.431,0.889-0.024,1.615-1.013,1.615h-49.74c-0.989,0-1.479-0.74-1.088-1.646
				l1.918-4.451c0.392-0.908,1.354-2.141,2.143-2.737l7.989-6.048c0.79-0.598,0.624-1.083-0.362-1.083h-5.561
				c-0.987,0-1.521-0.762-1.182-1.69l1.562-4.324c0.339-0.932,1.423-1.688,2.408-1.688h11.76c0.986,0,2.072-0.76,2.41-1.688
				l0.283-0.777c0.34-0.928-0.192-1.688-1.18-1.688h-12.195c-0.988,0-1.521-0.76-1.184-1.688l1.576-4.325
				c0.336-0.929,1.423-1.688,2.408-1.688h12.177c0.989,0,2.073-0.762,2.407-1.689l0.355-0.997c0.336-0.931,1.418-1.688,2.407-1.688
				h11.103c0.988,0,1.522,0.759,1.189,1.688l-0.359,0.997c-0.336,0.93,0.2,1.689,1.188,1.689h13.074c0.984,0,1.52,0.76,1.184,1.688
				l-1.568,4.325c-0.332,0.93-1.418,1.688-2.406,1.688h-13.074c-0.986,0-2.073,0.76-2.412,1.688l-0.283,0.777
				c-0.339,0.93,0.196,1.688,1.184,1.688h13.486c0.983,0,1.518,0.757,1.184,1.688l-1.571,4.324c-0.336,0.93-1.42,1.69-2.409,1.69
				h-18.711c-0.986,0-2.441,0.485-3.227,1.083l-7.986,6.048c-0.788,0.599-0.624,1.088,0.361,1.088h13.188
				c0.986,0,1.474-0.741,1.082-1.651l-0.709-1.643c-0.392-0.908,0.099-1.652,1.082-1.652h9.933c0.989,0,2.15,0.729,2.582,1.619
				L229.615,38.344z"/>
		</g>
		<g>
			<path fill="#000000" d="M177.06,26.365c0.985,0,1.334,0.664,0.77,1.479l-7.905,11.366c-0.562,0.81-1.832,1.476-2.821,1.476
				h-7.979c-0.987,0-1.339-0.666-0.78-1.48l7.777-11.355c0.562-0.813,1.825-1.482,2.813-1.482h8.125V26.365z"/>
		</g>
		<g>
			<path fill="#000000" d="M172.769,3.258c-0.988,0-2.072,0.762-2.414,1.688l-1.598,4.369c-0.338,0.93,0.193,1.687,1.178,1.686
				l11.721-0.033c0.988-0.004,2.074-0.764,2.418-1.69l1.587-4.331c0.338-0.93-0.193-1.688-1.181-1.688H172.769z"/>
		</g>
		<g>
			<path fill="#000000" d="M169.201,13.145c-0.986,0-2.073,0.76-2.412,1.687l-1.597,4.369c-0.342,0.927,0.189,1.683,1.177,1.683
				l11.724-0.029c0.986-0.004,2.073-0.764,2.412-1.691l1.586-4.33c0.34-0.927-0.191-1.688-1.177-1.688H169.201L169.201,13.145z"/>
		</g>
	</g>
	<path fill="#000000" d="M290.147,39.959c-0.988,0-2.265-0.658-2.838-1.466l-12.394-17.47c-0.57-0.807-1.601-0.885-2.287-0.174
		l-17.18,17.817c-0.688,0.709-2.058,1.291-3.048,1.291h-15.99c-0.987,0-1.235-0.585-0.553-1.296l35.713-37.309
		c0.682-0.715,2.05-1.299,3.035-1.299h16.356c0.989,0,1.228,0.572,0.526,1.271L279.405,13.4c-0.7,0.699-0.463,1.27,0.523,1.27h5.411
		c0.986,0,2.282,0.646,2.875,1.438l16.814,22.413c0.592,0.787,0.27,1.437-0.721,1.437L290.147,39.959L290.147,39.959z"/>
	<g>
		<path fill="#000000" d="M87.224,5.139c-0.339,0.929-1.423,1.688-2.411,1.688H60.814c-0.984,0-2.481,0.423-3.319,0.94l-3.794,2.344
			c-0.842,0.516-0.719,0.941,0.269,0.941h29.309c0.988,0,1.519,0.758,1.182,1.688l-9.299,25.543
			c-0.336,0.925-1.42,1.688-2.409,1.688H9.85c-0.989,0-1.521-0.763-1.183-1.688l9.304-25.543c0.336-0.93,1.421-1.688,2.408-1.688
			h18.11c0.988,0,2.484-0.427,3.326-0.941l3.793-2.344c0.84-0.519,0.72-0.94-0.267-0.94H21.909c-0.988,0-1.521-0.76-1.183-1.688
			l1.254-3.451C22.32,0.76,23.403,0,24.39,0h62.911c0.988,0,1.518,0.76,1.182,1.688L87.224,5.139z M52.092,19.344
			c0.988,0,1.965-0.465,2.173-1.033c0.208-0.571-0.431-1.036-1.419-1.036H46c-0.986,0-1.968,0.465-2.177,1.036
			c-0.211,0.568,0.424,1.033,1.414,1.033H52.092z M49.394,26.775c0.986,0,1.969-0.484,2.182-1.076
			c0.214-0.59-0.419-1.072-1.404-1.072h-6.854c-0.985,0-1.973,0.482-2.188,1.072c-0.214,0.592,0.416,1.076,1.404,1.076H49.394z
			 M46.69,34.196c0.985,0,1.969-0.481,2.181-1.071c0.214-0.587-0.419-1.068-1.407-1.068h-6.856c-0.987,0-1.97,0.481-2.182,1.068
			c-0.213,0.59,0.422,1.071,1.41,1.071H46.69z M59.767,34.196c0.988,0,2.071-0.759,2.408-1.688l4.93-13.551
			c0.337-0.929-0.194-1.685-1.183-1.685h-0.457c-0.985,0-2.071,0.756-2.409,1.685l-4.929,13.551
			c-0.338,0.93,0.193,1.688,1.181,1.688H59.767z M27.799,34.196c0.989,0,2.072-0.759,2.407-1.688l4.928-13.551
			c0.337-0.929-0.194-1.685-1.183-1.685h-0.478c-0.987,0-2.071,0.756-2.409,1.685l-4.927,13.551
			c-0.339,0.93,0.193,1.688,1.181,1.688H27.799z"/>
	</g>
	<g>
		<path fill="#000000" d="M177.751,72.684c-0.259-1.441,0.725-2.618,2.189-2.618h4.236c1.465,0,2.879,1.177,3.137,2.618l1.244,6.898
			c0.258,1.441-0.726,2.621-2.19,2.621h-4.231c-1.465,0-2.877-1.18-3.136-2.618L177.751,72.684z"/>
		<path fill="#000000" d="M210.31,71.137c1.219,0,1.748,0.883,1.178,1.959l-10.74,20.205c-0.573,1.076-2.039,1.959-3.262,1.959
			h-10.502c-1.222,0-1.75-0.883-1.176-1.955l10.739-20.211c0.573-1.074,2.042-1.957,3.261-1.957H210.31z"/>
		<path fill="#000000" d="M165.671,72.684c-0.262-1.441,0.725-2.618,2.189-2.618h4.162c1.465,0,2.875,1.177,3.135,2.618l1.24,6.898
			c0.262,1.441-0.726,2.621-2.189,2.621h-4.158c-1.462,0-2.874-1.18-3.134-2.618L165.671,72.684z"/>
	</g>
	<path fill="#000000" d="M28.281,55.255c0.421-1.146-0.23-2.081-1.45-2.081h-8.95c-1.222,0-2.564,0.936-2.985,2.081l-0.705,1.907
		c-0.423,1.145-1.767,2.081-2.987,2.081H5.569c-1.221,0-2.557,0.938-2.972,2.087L0.124,68.2c-0.415,1.151,0.246,2.093,1.467,2.093
		h5.685c1.221,0,1.878,0.936,1.46,2.081L1.17,93.16c-0.418,1.146,0.238,2.084,1.46,2.084h8.946c1.221,0,2.559-0.938,2.977-2.084
		l7.567-20.786c0.42-1.146,1.759-2.081,2.979-2.081h23.634c1.222,0,1.875,0.936,1.456,2.081l-7.64,20.789
		c-0.421,1.146,0.233,2.081,1.455,2.081h13.967c1.22,0,2.561-0.938,2.979-2.084l11.572-31.83c0.418-1.148-0.24-2.087-1.461-2.087
		H29.025c-1.221,0-1.872-0.937-1.45-2.081L28.281,55.255z"/>
	<path fill="#000000" d="M243.547,69.271c0.571-1.079,2.034-1.963,3.256-1.963h25.185c1.223,0,1.746,0.884,1.173,1.957
		l-12.827,24.023c-0.576,1.076-0.047,1.954,1.172,1.954h14.667c1.22,0,2.685-0.878,3.256-1.954l18.697-35.118
		c0.571-1.079,0.042-1.958-1.174-1.958h-59.474c-1.217,0-2.685,0.883-3.252,1.958l-11.42,21.53c-0.574,1.076-0.043,1.96,1.174,1.96
		h10.782c1.22,0,2.685-0.884,3.255-1.96L243.547,69.271z"/>
	<path fill="#000000" d="M112.506,59.246c-1.221-0.003-2.539-0.947-2.932-2.104l-0.638-1.869c-0.39-1.154-1.709-2.1-2.932-2.1
		H92.368c-1.221,0-1.898,0.944-1.503,2.1l0.633,1.869c0.392,1.154-0.285,2.101-1.506,2.101H84.36c-1.221,0-1.886,0.94-1.476,2.092
		l2.439,6.864c0.409,1.15,1.741,2.094,2.962,2.094h5.633c1.221,0,2.563,0.937,2.985,2.078l7.666,20.795
		c0.422,1.143,1.766,2.078,2.986,2.078h13.638c1.22,0,1.873-0.936,1.451-2.078l-7.663-20.795c-0.423-1.143,0.231-2.078,1.452-2.078
		h19.09c1.22,0,1.75,0.879,1.176,1.957l-4.863,9.152c-0.574,1.079-0.045,1.96,1.176,1.96h10.446c1.22,0,2.687-0.881,3.258-1.956
		l10.734-20.189c0.57-1.078,0.042-1.959-1.178-1.959L112.506,59.246z"/>
</g>
</svg>
